<?xml version="1.0" encoding="UTF-8"?>
<!-- Generator: visioncortex VTracer 0.6.4 -->
<svg version="1.1" xmlns="http://www.w3.org/2000/svg" width="1088" height="1042">
<path d="M0 0 C359.04 0 718.08 0 1088 0 C1088 343.86 1088 687.72 1088 1042 C728.96 1042 369.92 1042 0 1042 C0 698.14 0 354.28 0 0 Z " fill="#14377D" transform="translate(0,0)"/>
<path d="M0 0 C0.33 0.33 0.66 0.66 1 1 C1.95 1.15 2.9 1.29 3.87 1.44 C7.4 1.99 10.93 2.53 14.45 3.08 C15.98 3.32 17.5 3.55 19.03 3.79 C21.22 4.13 23.42 4.47 25.61 4.81 C26.29 4.91 26.97 5.02 27.67 5.12 C30.82 5.62 33.92 6.15 37 7 C37 7.66 37 8.32 37 9 C37.67 9.04 38.33 9.07 39.02 9.11 C44.89 9.53 50.24 10.45 55.88 12.1 C59.79 13.23 63.73 14.21 67.69 15.19 C68.41 15.37 69.13 15.55 69.87 15.73 C71.58 16.15 73.29 16.58 75 17 C75 17.66 75 18.32 75 19 C77.31 19 79.62 19 82 19 C82 19.66 82 20.32 82 21 C82.72 21.14 83.44 21.28 84.18 21.42 C92.46 23.12 100.22 25.72 108 29 C109.67 29.67 111.33 30.34 113 31 C113 31.66 113 32.32 113 33 C114.02 33.1 115.04 33.21 116.1 33.32 C120.05 34.01 122.87 35.15 126.44 36.94 C131.3 39.28 135.71 40.96 141 42 C141.66 42.99 142.32 43.98 143 45 C145.64 45.66 148.28 46.32 151 47 C151 47.66 151 48.32 151 49 C153.47 49.5 153.47 49.5 156 50 C156 50.66 156 51.32 156 52 C156.74 52.08 157.49 52.16 158.25 52.25 C159.61 52.62 159.61 52.62 161 53 C162.36 54.31 163.69 55.65 165 57 C166.97 58.05 168.98 59.05 171 60 C172.68 60.98 174.35 61.98 176 63 C176 63.66 176 64.32 176 65 C176.74 65.27 177.47 65.55 178.23 65.83 C180.84 66.93 182.93 68.15 185.25 69.75 C186.02 70.28 186.8 70.8 187.59 71.35 C188.78 72.17 188.78 72.17 190 73 C196.9 77.66 196.9 77.66 204 82 C204 82.99 204 83.98 204 85 C204.89 85.25 205.77 85.5 206.69 85.75 C210 87 210 87 212.56 88.69 C214.59 90.61 215.9 92.22 217.44 94.5 C218.73 96.42 219.85 97.88 221.65 99.34 C223.07 100.28 224.53 101.15 226 102 C226 102.99 226 103.98 226 105 C226.58 105.23 227.17 105.46 227.77 105.69 C230 107 230 107 231.92 109.28 C232.53 110.16 233.13 111.03 233.75 111.94 C234.36 112.81 234.98 113.69 235.61 114.59 C236.07 115.39 236.53 116.18 237 117 C237 117.99 237 118.98 237 120 C237.99 120.33 238.98 120.66 240 121 C240 121.66 240 122.32 240 123 C240.66 123 241.32 123 242 123 C242.33 124.65 242.66 126.3 243 128 C243.66 128 244.32 128 245 128 C245.99 129.56 246.97 131.12 247.94 132.69 C248.76 133.99 248.76 133.99 249.59 135.32 C250.97 137.95 251.58 140.08 252 143 C252.66 143 253.32 143 254 143 C254.67 144.62 255.34 146.25 256 147.88 C256.37 148.78 256.74 149.68 257.12 150.62 C257.41 151.4 257.7 152.19 258 153 C258 153.66 258 154.32 258 155 C258.66 155 259.32 155 260 155 C263.92 164.84 263.92 164.84 264.25 169.69 C264.17 170.45 264.09 171.21 264 172 C264.66 172 265.32 172 266 172 C266.13 172.99 266.27 173.97 266.4 174.99 C266.58 176.27 266.76 177.55 266.94 178.88 C267.11 180.15 267.29 181.43 267.46 182.74 C267.81 185.88 267.81 185.88 269 188 C269.1 190.33 269.13 192.66 269.13 194.99 C269.14 196.08 269.14 196.08 269.14 197.19 C269.15 199.65 269.15 202.1 269.15 204.55 C269.15 206.3 269.15 208.05 269.16 209.8 C269.16 214.58 269.17 219.35 269.17 224.12 C269.17 228.1 269.17 232.08 269.18 236.06 C269.18 245.45 269.19 254.85 269.19 264.24 C269.18 273.93 269.2 283.62 269.21 293.32 C269.22 301.63 269.23 309.95 269.23 318.27 C269.23 323.23 269.23 328.2 269.24 333.17 C269.25 337.85 269.25 342.52 269.24 347.2 C269.24 348.91 269.25 350.63 269.25 352.34 C269.26 354.69 269.25 357.03 269.25 359.38 C269.25 360.69 269.25 362 269.25 363.35 C268.99 367.15 268.16 370.38 267 374 C266.73 375.33 266.49 376.67 266.29 378.02 C266.13 379.05 266.13 379.05 265.96 380.1 C265.85 380.81 265.74 381.52 265.62 382.25 C264.48 389.19 262.66 395.47 260 402 C259.67 403.05 259.34 404.1 259 405.19 C257.06 410.64 254.49 415.4 251 420 C250.71 420.74 250.42 421.49 250.12 422.25 C248.54 426.12 246.28 429.5 244 433 C243.34 433 242.68 433 242 433 C241.75 433.87 241.5 434.73 241.25 435.62 C239.93 439.18 238.2 441.92 236 445 C234.68 445.33 233.36 445.66 232 446 C231.77 446.54 231.55 447.07 231.31 447.62 C229.58 450.75 227.33 453.32 225 456 C224.48 456.61 223.97 457.22 223.43 457.85 C218.89 463.15 214.21 468.35 209 473 C207.03 474.06 205.03 475.07 203 476 C200.57 477.9 198.27 479.92 196 482 C195.34 482 194.68 482 194 482 C193.67 483.32 193.34 484.64 193 486 C191.06 486.98 189.13 487.96 187.19 488.94 C186.11 489.48 185.03 490.03 183.92 490.59 C181 492 181 492 178 493 C177.67 493.99 177.34 494.98 177 496 C175.02 496.33 173.04 496.66 171 497 C171 497.66 171 498.32 171 499 C169.68 499 168.36 499 167 499 C166.67 500.32 166.34 501.64 166 503 C164.37 504.06 162.7 505.05 161 506 C160.01 506 159.02 506 158 506 C158 506.66 158 507.32 158 508 C155.42 509.32 152.84 510.63 150.25 511.94 C149.52 512.31 148.79 512.68 148.04 513.07 C147.33 513.43 146.62 513.78 145.89 514.15 C145.24 514.48 144.59 514.81 143.92 515.15 C142 516 142 516 139.87 516.52 C138.94 516.76 138.94 516.76 138 517 C136.27 518.48 136.27 518.48 135 520 C134.01 520 133.02 520 132 520 C132 520.66 132 521.32 132 522 C128.75 524.04 125.65 525.78 122 527 C120.91 527.14 119.81 527.29 118.69 527.44 C114.51 528.08 110.89 529.43 107 531 C104.94 531.79 102.88 532.59 100.81 533.38 C97.39 534.69 93.97 536.01 90.55 537.36 C82.64 540.48 75.4 542.67 67 543.88 C60.42 544.84 54.09 546.39 47.67 548.05 C44.13 548.97 40.58 549.8 37 550.56 C35.59 550.87 34.18 551.21 32.78 551.56 C27.39 552.89 22.56 553.18 17 553 C17 553.66 17 554.32 17 555 C8.87 557.27 1.58 558.19 -6.85 557.97 C-9.57 558 -11.61 558.24 -14.19 559 C-18.34 560.09 -21.74 560.04 -26 559.78 C-29.19 559.87 -29.19 559.87 -32.71 561.43 C-40.18 564.05 -48.29 563.87 -56.12 564.19 C-57.44 564.25 -57.44 564.25 -58.77 564.31 C-96.26 565.98 -134.55 566.46 -171.68 560.35 C-176.57 559.61 -181.49 559.14 -186.41 558.65 C-189.43 558.33 -192.1 557.97 -195 557 C-197.57 556.82 -200.12 556.67 -202.69 556.56 C-225.85 555.38 -225.85 555.38 -236 552 C-236.33 551.34 -236.66 550.68 -237 550 C-237.88 549.89 -238.76 549.78 -239.67 549.67 C-240.83 549.51 -241.99 549.35 -243.19 549.19 C-244.34 549.04 -245.48 548.89 -246.67 548.73 C-250 548 -250 548 -252.41 546.53 C-254.81 545.11 -256.31 544.59 -258.99 544.05 C-260.43 543.79 -261.87 543.55 -263.31 543.31 C-264.05 543.18 -264.79 543.05 -265.56 542.92 C-267.37 542.6 -269.18 542.3 -271 542 C-271.99 540.51 -271.99 540.51 -273 539 C-273.25 536.69 -273.25 536.69 -273.24 533.93 C-273.24 532.36 -273.24 532.36 -273.25 530.76 C-273.24 529.03 -273.24 529.03 -273.23 527.28 C-273.23 526.07 -273.23 524.86 -273.23 523.61 C-273.23 520.29 -273.22 516.97 -273.2 513.66 C-273.19 510.19 -273.19 506.72 -273.19 503.25 C-273.18 496.69 -273.16 490.12 -273.14 483.56 C-273.12 476.08 -273.11 468.61 -273.1 461.13 C-273.08 445.75 -273.04 430.38 -273 415 C-271.73 414.98 -270.46 414.97 -269.15 414.95 C-268.44 414.94 -267.72 414.93 -266.99 414.92 C-265 415 -265 415 -262.57 415.8 C-261.91 416.16 -261.24 416.51 -260.56 416.88 C-256.94 418.64 -253.68 419.6 -249.75 420.36 C-243.4 421.83 -237.21 424.01 -231 426 C-231 426.66 -231 427.32 -231 428 C-229.96 428.13 -228.93 428.27 -227.86 428.4 C-226.49 428.58 -225.12 428.76 -223.75 428.94 C-223.07 429.02 -222.39 429.11 -221.68 429.2 C-218.4 429.63 -215.19 430.09 -212 431 C-212 431.66 -212 432.32 -212 433 C-210.39 432.91 -210.39 432.91 -208.75 432.81 C-203.89 432.8 -199.5 433.98 -194.83 435.25 C-190.14 436.49 -185.57 437.18 -180.74 437.68 C-177.59 438.05 -174.47 438.51 -171.34 438.97 C-149.5 441.99 -127.76 442.39 -105.75 442.38 C-103.41 442.38 -101.06 442.38 -98.72 442.38 C-72.11 442.39 -45.89 441.06 -19.51 437.34 C-16.52 436.94 -13.53 436.6 -10.53 436.28 C-2.96 435.46 4.55 434.33 12.06 433.06 C13.51 432.83 13.51 432.83 14.98 432.58 C19.8 431.75 24.18 430.69 28.71 428.86 C34.11 426.83 39.71 425.39 45.25 423.81 C47.15 423.26 47.15 423.26 49.09 422.7 C50.3 422.35 51.51 422 52.77 421.64 C53.87 421.33 54.97 421.01 56.1 420.69 C59 420 59 420 63 420 C63 419.34 63 418.68 63 418 C66.35 416.87 69.71 415.75 73.06 414.62 C74.01 414.31 74.95 413.99 75.92 413.66 C80.92 411.99 85.92 410.41 91 409 C100.25 406.34 108.54 402.43 117.05 398.01 C122.62 395.13 128.2 392.41 134 390 C134.83 389.65 135.65 389.3 136.5 388.94 C139.62 387.77 142.79 386.88 146 386 C146 385.34 146 384.68 146 384 C146.53 383.68 147.06 383.36 147.6 383.04 C150.01 381.59 152.41 380.14 154.81 378.69 C156.06 377.94 156.06 377.94 157.34 377.17 C158.14 376.69 158.94 376.2 159.77 375.7 C160.51 375.25 161.25 374.81 162.01 374.35 C163.93 373.05 165.41 371.67 167 370 C168.21 369.08 169.44 368.18 170.69 367.31 C171.31 366.88 171.93 366.44 172.57 365.99 C173.04 365.66 173.52 365.34 174 365 C174.99 365 175.98 365 177 365 C177 364.34 177 363.68 177 363 C177.85 362.83 178.69 362.67 179.56 362.5 C180.7 362 181.83 361.51 183 361 C184.95 359.02 186.67 356.96 188.39 354.78 C188.92 354.19 189.45 353.6 190 353 C190.99 352.67 191.98 352.34 193 352 C193.25 351.39 193.5 350.79 193.75 350.16 C194.17 349.45 194.58 348.73 195 348 C196.84 346.62 196.84 346.62 198.94 345.44 C201.7 343.86 203.83 342.33 206 340 C206.78 339.24 207.57 338.47 208.38 337.69 C211.05 335.04 211.05 335.04 213.38 332.06 C215.76 329.12 218.48 326.82 221.45 324.49 C223.11 323.05 223.11 323.05 224.06 320.96 C224.37 320.31 224.68 319.67 225 319 C225.78 318.26 226.57 317.51 227.38 316.75 C229.69 314.32 230.74 312.76 232.12 309.81 C232.42 309.14 232.71 308.46 233.01 307.77 C233.5 306.89 233.5 306.89 234 306 C234.99 305.34 235.98 304.68 237 304 C238.49 300.04 238.49 300.04 240 296 C240.99 296 241.98 296 243 296 C244.49 291.05 244.49 291.05 246 286 C246.66 286 247.32 286 248 286 C248.12 285.44 248.24 284.89 248.37 284.32 C249.31 280.86 250.77 277.64 252.16 274.34 C253.17 271.94 253.17 271.94 253 269 C250.51 272.36 248.28 275.4 246.5 279.19 C246 280.12 245.51 281.04 245 282 C243.37 283.38 241.7 284.71 240 286 C238.66 287.66 237.33 289.33 236 291 C235.32 291.47 234.64 291.95 233.94 292.44 C233.3 292.95 232.66 293.47 232 294 C231.59 294.87 231.17 295.73 230.75 296.62 C228.25 301.44 224.84 305.2 221 309 C219.06 310.47 217.06 311.7 215 313 C213.99 314.32 212.99 315.66 212 317 C211.38 317.29 210.76 317.58 210.12 317.88 C209.07 318.43 209.07 318.43 208 319 C207.34 319.87 206.68 320.73 206 321.62 C203.46 324.87 200.44 326.83 197 329.06 C195.99 329.69 194.98 330.32 193.94 330.97 C190.91 333.06 188.5 335.3 186 338 C185.44 338.8 184.89 339.61 184.31 340.44 C181.42 343.65 178.2 345.4 174.44 347.47 C171.94 348.91 171.94 348.91 170.02 351.02 C168 353 168 353 165.41 354.45 C156.09 358.59 156.09 358.59 151 359 C151 359.66 151 360.32 151 361 C149.35 361.33 147.7 361.66 146 362 C146 362.66 146 363.32 146 364 C144.02 365.45 142.13 366.79 140 368 C137.67 368.67 135.33 369.34 133 370 C131.36 370.78 129.74 371.6 128.12 372.44 C124.16 374.5 120.3 376.01 116.01 377.23 C113.92 377.92 113.92 377.92 112.15 379.45 C109.94 381.04 108.15 381.78 105.56 382.57 C104.31 382.96 104.31 382.96 103.04 383.35 C101.75 383.73 101.75 383.73 100.44 384.12 C99.57 384.39 98.71 384.65 97.82 384.93 C96.22 385.42 94.62 385.9 93.02 386.38 C91.34 386.9 89.67 387.44 88 388 C88 388.66 88 389.32 88 390 C82.78 392.49 77.61 393.91 71.98 395.25 C69.38 395.9 66.9 396.67 64.38 397.56 C60.59 398.87 56.84 399.68 52.91 400.4 C50.06 400.99 47.26 401.71 44.45 402.46 C35.37 404.88 26.35 406.12 17 407 C17 407.66 17 408.32 17 409 C12.9 409.65 8.79 410.3 4.69 410.94 C3.54 411.12 2.39 411.3 1.21 411.49 C-5.12 412.48 -11.4 413.29 -17.78 413.76 C-20.17 413.94 -20.17 413.94 -23 415 C-31.22 417.74 -40.44 417.13 -49 417 C-49 417.66 -49 418.32 -49 419 C-65.78 420.22 -82.58 420.22 -99.4 420.24 C-102.66 420.24 -105.91 420.26 -109.16 420.28 C-130.32 420.43 -150.99 419.65 -172 417 C-172.33 416.67 -172.66 416.34 -173 416 C-173.56 415.92 -174.12 415.84 -174.69 415.76 C-177.28 415.38 -179.86 415 -182.44 414.62 C-183.32 414.5 -184.19 414.37 -185.1 414.24 C-190.8 413.4 -196.39 412.31 -202 411 C-202 410.34 -202 409.68 -202 409 C-202.84 408.93 -203.68 408.85 -204.55 408.77 C-218.27 407.32 -231.58 404.13 -245 401 C-245 400.34 -245 399.68 -245 399 C-245.99 399.06 -246.98 399.12 -248 399.19 C-249.96 399.19 -249.96 399.19 -252 399 C-253.85 398.29 -255.7 397.57 -257.54 396.8 C-262.83 395.08 -268.48 394.66 -274 394 C-274 393.34 -274 392.68 -274 392 C-274.85 391.88 -275.71 391.77 -276.59 391.65 C-280.13 390.98 -283.21 389.93 -286.56 388.62 C-288.2 387.99 -288.2 387.99 -289.88 387.35 C-292.77 386.1 -295.31 384.62 -298 383 C-299.15 382.67 -300.31 382.34 -301.5 382 C-305 381 -305 381 -307.28 379.59 C-310.43 377.75 -313.55 376.66 -317 375.5 C-321.37 374.03 -325.12 372.47 -329 370 C-330.26 369.34 -331.53 368.69 -332.81 368.06 C-333.83 367.56 -333.83 367.56 -334.86 367.05 C-335.57 366.7 -336.27 366.36 -337 366 C-338.5 365.25 -340 364.5 -341.5 363.75 C-342.65 363.17 -343.81 362.6 -345 362 C-345.5 360.51 -345.5 360.51 -346 359 C-347.33 358.26 -347.33 358.26 -348.69 357.5 C-352.35 355.43 -355.88 353.18 -359.44 350.94 C-364.21 347.98 -368.65 345.68 -374 344 C-374 343.34 -374 342.68 -374 342 C-375.65 341.34 -377.3 340.68 -379 340 C-379 339.34 -379 338.68 -379 338 C-379.76 337.88 -380.53 337.75 -381.31 337.62 C-382.64 337.32 -382.64 337.32 -384 337 C-384.99 336.34 -385.98 335.68 -387 335 C-387 334.34 -387 333.68 -387 333 C-387.54 332.77 -388.07 332.55 -388.62 332.31 C-391.81 330.55 -394.28 328.42 -397 326 C-397.33 325.34 -397.66 324.68 -398 324 C-398.99 323.67 -399.98 323.34 -401 323 C-401 322.34 -401 321.68 -401 321 C-401.75 320.75 -402.49 320.49 -403.26 320.23 C-406 319 -406 319 -407.99 317.27 C-408.92 316.27 -408.92 316.27 -409.88 315.25 C-412.36 312.65 -414.85 310.22 -417.62 307.94 C-423.04 303.39 -427.29 298.01 -431 292 C-431.47 290.99 -431.95 289.98 -432.44 288.94 C-433.87 285.89 -433.87 285.89 -436.44 283.62 C-439.15 280.84 -440.42 278.4 -442.02 274.92 C-443.04 272.76 -443.04 272.76 -445.19 270.31 C-446.08 269.17 -446.08 269.17 -447 268 C-447.75 265.19 -447.75 265.19 -448 263 C-448.66 263 -449.32 263 -450 263 C-448.52 269.52 -446.56 275.81 -444 282 C-443.01 283.49 -443.01 283.49 -442 285 C-441.29 287.32 -440.62 289.65 -440 292 C-439.34 292 -438.68 292 -438 292 C-436.83 294.12 -435.66 296.25 -434.5 298.38 C-434 299.28 -434 299.28 -433.49 300.2 C-432.63 301.79 -431.81 303.39 -431 305 C-431 305.66 -431 306.32 -431 307 C-430.1 307.36 -430.1 307.36 -429.17 307.72 C-428.46 308.14 -427.74 308.56 -427 309 C-425.52 311.09 -425.52 311.09 -424.25 313.5 C-423.61 314.69 -423.61 314.69 -422.95 315.91 C-422.64 316.6 -422.32 317.29 -422 318 C-422 318.66 -422 319.32 -422 320 C-421.01 320.33 -420.02 320.66 -419 321 C-417.16 322.88 -415.63 324.93 -414 327 C-414 327.66 -414 328.32 -414 329 C-412.68 329.33 -411.36 329.66 -410 330 C-409.5 331.49 -409.5 331.49 -409 333 C-407.35 333.66 -405.7 334.32 -404 335 C-404 335.66 -404 336.32 -404 337 C-403.34 337 -402.68 337 -402 337 C-402 381.22 -402 425.44 -402 471 C-402.66 471.33 -403.32 471.66 -404 472 C-404.66 471.67 -405.32 471.34 -406 471 C-406 470.34 -406 469.68 -406 469 C-406.66 469 -407.32 469 -408 469 C-410.93 466.15 -413.64 463.35 -416 460 C-416 459.34 -416 458.68 -416 458 C-417.65 457.67 -419.3 457.34 -421 457 C-421.99 455.68 -422.98 454.36 -424 453 C-424 452.34 -424 451.68 -424 451 C-424.66 451 -425.32 451 -426 451 C-426.99 449.02 -427.98 447.04 -429 445 C-429.66 444.67 -430.32 444.34 -431 444 C-431.33 442.35 -431.66 440.7 -432 439 C-433.65 438.34 -435.3 437.68 -437 437 C-437.5 435.02 -437.5 435.02 -438 433 C-438.66 433 -439.32 433 -440 433 C-443.13 427.73 -443.13 427.73 -444 426 C-444 425.34 -444 424.68 -444 424 C-444.66 424 -445.32 424 -446 424 C-447.3 421.29 -448.59 418.59 -449.88 415.88 C-450.42 414.73 -450.42 414.73 -450.98 413.57 C-452.93 409.45 -454.79 405.41 -456 401 C-456 399.68 -456 398.36 -456 397 C-456.66 397 -457.32 397 -458 397 C-462.59 383.44 -463.3 370.19 -463.27 356.02 C-463.28 354.25 -463.28 352.48 -463.29 350.7 C-463.3 345.92 -463.3 341.14 -463.3 336.36 C-463.3 332.35 -463.31 328.35 -463.31 324.34 C-463.32 314.89 -463.32 305.43 -463.32 295.97 C-463.31 286.25 -463.32 276.52 -463.34 266.8 C-463.36 258.42 -463.37 250.04 -463.36 241.66 C-463.36 236.67 -463.36 231.67 -463.38 226.68 C-463.39 221.99 -463.39 217.29 -463.38 212.6 C-463.37 210.88 -463.38 209.17 -463.38 207.46 C-463.42 198.56 -463.09 190.46 -460.68 181.81 C-459.95 178.79 -459.74 175.97 -459.62 172.88 C-459.42 169.63 -459.02 167.06 -457.94 163.98 C-456.31 160.37 -454.6 156.94 -452.47 153.61 C-450.75 150.55 -449.8 147.56 -448.81 144.19 C-448.3 142.45 -448.3 142.45 -447.77 140.67 C-447.52 139.79 -447.26 138.91 -447 138 C-445.51 137.01 -445.51 137.01 -444 136 C-443.55 135.05 -443.09 134.1 -442.62 133.12 C-442.09 132.09 -441.55 131.06 -441 130 C-439.37 128.62 -437.7 127.29 -436 126 C-433.21 122.87 -431.16 119.6 -429.12 115.95 C-425.95 110.41 -422.8 105.46 -417.94 101.25 C-416.92 100.41 -416.92 100.41 -415.88 99.56 C-413.8 97.88 -413.8 97.88 -411.31 95.31 C-408.99 92.99 -406.6 91.01 -404 89 C-402.4 87.75 -400.79 86.5 -399.19 85.25 C-397.79 84.17 -396.4 83.08 -395 82 C-394.34 82 -393.68 82 -393 82 C-393 81.01 -393 80.02 -393 79 C-391.24 76.93 -389.47 75.27 -387.12 73.9 C-386.4 73.52 -385.68 73.14 -384.94 72.75 C-378.26 69.19 -372.22 64.64 -366.38 59.85 C-363.44 57.56 -360.45 56.4 -357 55 C-351.25 52.41 -346.05 49.18 -340.81 45.68 C-337.64 43.79 -334.39 42.44 -331 41 C-328.78 39.77 -326.58 38.51 -324.38 37.25 C-315.75 32.46 -306.55 29.6 -297.14 26.74 C-294.96 26.05 -294.96 26.05 -292.91 24.91 C-292.28 24.61 -291.65 24.31 -291 24 C-290.01 24 -289.02 24 -288 24 C-288 23.34 -288 22.68 -288 22 C-287.38 21.82 -286.77 21.64 -286.13 21.45 C-276.22 18.58 -276.22 18.58 -266.57 14.96 C-263.89 13.96 -261.47 13.51 -258.62 13.12 C-252.7 12.19 -247.02 10.75 -241.24 9.15 C-235.34 7.53 -229.39 6.1 -223.44 4.66 C-222.62 4.46 -221.79 4.26 -220.95 4.05 C-220.21 3.87 -219.47 3.69 -218.71 3.51 C-218.15 3.34 -217.58 3.17 -217 3 C-216.67 2.67 -216.34 2.34 -216 2 C-209.07 1.01 -209.07 1.01 -202 0 C-201.67 -0.33 -201.34 -0.66 -201 -1 C-180.69 -3.75 -160.48 -5.89 -140 -7 C-139.02 -7.06 -138.04 -7.12 -137.02 -7.18 C-92.2 -9.78 -43.92 -10.34 0 0 Z " fill="#092045" transform="translate(639,117)"/>
<path d="M0 0 C20.79 0 41.58 0 63 0 C65.64 2.97 68.28 5.94 71 9 C71 9.66 71 10.32 71 11 C71.66 11 72.32 11 73 11 C73.59 11.85 74.19 12.7 74.8 13.57 C79.59 20.36 84.5 27.01 89.67 33.52 C93.44 38.27 97.14 43.06 100.81 47.88 C101.34 48.56 101.87 49.25 102.41 49.96 C103.94 51.97 105.47 53.99 107 56 C107.82 57.08 107.82 57.08 108.67 58.19 C109.2 58.9 109.74 59.61 110.29 60.34 C110.77 60.98 111.25 61.62 111.75 62.27 C113 64 113 64 114.56 66.69 C115.95 69.12 115.95 69.12 118.19 71.19 C123.83 76.83 128.55 83.34 133.31 89.74 C135.49 92.66 137.71 95.55 139.94 98.44 C140.37 99 140.8 99.55 141.24 100.13 C144.36 104.18 147.52 108.2 150.72 112.2 C152 114 152 114 153 117 C153.72 117.72 154.44 118.44 155.19 119.19 C158.52 122.52 161.4 126.07 164 130 C164.33 130.99 164.66 131.98 165 133 C165.66 133.33 166.32 133.66 167 134 C167.5 68.16 167.5 68.16 168 1 C168.33 0.67 168.66 0.34 169 0 C190.78 0 212.56 0 235 0 C235.99 0.99 235.99 0.99 237 2 C237 83.51 237 165.02 237 249 C236.01 250.32 235.02 251.64 234 253 C214.86 253 195.72 253 176 253 C170.9 247.9 166.62 242.53 162.25 236.81 C157.26 230.31 152.16 223.9 147 217.53 C145.07 215.09 143.24 212.6 141.44 210.06 C137.86 205.12 134.14 200.32 130.35 195.54 C126.84 191.11 123.44 186.6 120.06 182.06 C114.64 174.77 108.99 167.67 103.29 160.6 C100.48 157.1 97.74 153.55 95 150 C93.29 147.81 91.58 145.62 89.87 143.43 C87.22 139.98 84.61 136.49 82 133 C80.42 130.89 78.84 128.77 77.26 126.66 C76.19 125.23 75.13 123.81 74.06 122.38 C73.55 121.7 73.04 121.02 72.51 120.32 C72.05 119.7 71.59 119.09 71.12 118.46 C70.07 117.03 70.07 117.03 69 116 C68.67 159.89 68.34 203.78 68 249 C66.68 250.32 65.36 251.64 64 253 C43.21 253 22.42 253 1 253 C0.34 252.01 -0.32 251.02 -1 250 C-1.25 248.05 -1.25 248.05 -1.25 245.78 C-1.25 244.92 -1.26 244.05 -1.26 243.16 C-1.26 242.21 -1.25 241.26 -1.25 240.28 C-1.25 239.27 -1.25 238.26 -1.25 237.22 C-1.26 233.83 -1.25 230.43 -1.24 227.03 C-1.24 224.6 -1.25 222.18 -1.25 219.75 C-1.25 213.82 -1.25 207.9 -1.24 201.98 C-1.23 195.09 -1.23 188.19 -1.23 181.3 C-1.23 169 -1.22 156.71 -1.21 144.41 C-1.19 132.47 -1.18 120.53 -1.19 108.59 C-1.19 107.86 -1.19 107.12 -1.19 106.36 C-1.19 105.63 -1.19 104.9 -1.19 104.14 C-1.19 90.56 -1.18 76.97 -1.17 63.39 C-1.17 58.58 -1.17 53.78 -1.17 48.97 C-1.17 42.5 -1.16 36.03 -1.15 29.57 C-1.15 27.19 -1.15 24.81 -1.15 22.43 C-1.15 19.19 -1.14 15.95 -1.13 12.72 C-1.14 11.77 -1.14 10.82 -1.14 9.84 C-1.14 8.97 -1.13 8.11 -1.13 7.22 C-1.13 6.47 -1.13 5.72 -1.13 4.95 C-1 3 -1 3 0 0 Z " fill="#FCFDFD" transform="translate(177,773)"/>
<path d="M0 0 C22.11 0 44.22 0 67 0 C67.99 1.49 67.99 1.49 69 3 C69.18 5.87 69.25 8.64 69.23 11.51 C69.23 12.39 69.23 13.28 69.23 14.18 C69.23 17.04 69.21 19.9 69.2 22.76 C69.19 24.53 69.19 26.29 69.19 28.05 C69.18 34.6 69.15 41.14 69.12 47.69 C69.08 62.31 69.04 76.93 69 92 C98.7 92 128.4 92 159 92 C159 62.3 159 32.6 159 2 C159.66 1.34 160.32 0.68 161 0 C182.78 0 204.56 0 227 0 C227.99 0.99 227.99 0.99 229 2 C229 83.84 229 165.68 229 250 C228.01 250.99 227.02 251.98 226 253 C204.88 253 183.76 253 162 253 C161.01 251.68 160.02 250.36 159 249 C159 217.65 159 186.3 159 154 C128.97 154 98.94 154 68 154 C68 186.01 68 218.02 68 251 C67.01 251.66 66.02 252.32 65 253 C62.21 253.24 62.21 253.24 58.78 253.23 C57.5 253.23 56.22 253.23 54.9 253.23 C53.5 253.22 52.11 253.21 50.71 253.2 C49.28 253.19 47.85 253.19 46.42 253.19 C42.65 253.18 38.89 253.16 35.13 253.14 C31.29 253.12 27.44 253.11 23.6 253.1 C16.07 253.08 8.53 253.04 1 253 C0.34 252.01 -0.32 251.02 -1 250 C-1.25 248.04 -1.25 248.04 -1.25 245.76 C-1.25 244.89 -1.26 244.03 -1.26 243.13 C-1.26 242.18 -1.25 241.22 -1.25 240.24 C-1.25 239.22 -1.25 238.21 -1.25 237.17 C-1.26 233.75 -1.25 230.34 -1.24 226.93 C-1.24 224.49 -1.25 222.04 -1.25 219.6 C-1.25 213.65 -1.25 207.7 -1.24 201.75 C-1.23 194.83 -1.23 187.91 -1.23 180.98 C-1.23 168.63 -1.22 156.28 -1.21 143.93 C-1.19 131.93 -1.18 119.94 -1.19 107.94 C-1.19 107.2 -1.19 106.47 -1.19 105.7 C-1.19 104.6 -1.19 104.6 -1.19 103.47 C-1.19 89.83 -1.18 76.18 -1.17 62.54 C-1.17 57.71 -1.17 52.88 -1.17 48.05 C-1.17 41.55 -1.16 35.06 -1.15 28.56 C-1.15 26.17 -1.15 23.78 -1.15 21.39 C-1.15 18.14 -1.14 14.89 -1.13 11.64 C-1.14 10.68 -1.14 9.72 -1.14 8.74 C-1.14 7.87 -1.13 7 -1.13 6.11 C-1.13 5.36 -1.13 4.61 -1.13 3.84 C-1.06 2.93 -1.06 2.93 -1 2 C-0.67 1.34 -0.34 0.68 0 0 Z " fill="#FCFDFD" transform="translate(462,773)"/>
<path d="M0 0 C21.78 0 43.56 0 66 0 C66.99 0.99 66.99 0.99 68 2 C68 64.04 68 126.08 68 190 C107.93 190 147.86 190 189 190 C189.66 190.66 190.32 191.32 191 192 C191 210.81 191 229.62 191 249 C189.68 250.32 188.36 251.64 187 253 C125.62 253 64.24 253 1 253 C0.34 252.34 -0.32 251.68 -1 251 C-1 168.5 -1 86 -1 1 C-0.67 0.67 -0.34 0.34 0 0 Z " fill="#FDFEFE" transform="translate(740,773)"/>
<path d="M0 0 C0.33 0.33 0.66 0.66 1 1 C0.67 6.58 0.05 11.35 -2.11 16.55 C-4.05 21.9 -5.2 27.53 -6.53 33.06 C-7.18 35.73 -7.87 38.4 -8.56 41.06 C-9.7 45.58 -10.63 50.12 -11.5 54.69 C-12.46 59.6 -13.6 64.23 -15.31 68.93 C-16.32 71.95 -16.89 75.03 -17.47 78.15 C-17.65 78.76 -17.82 79.37 -18 80 C-18.66 80.66 -19.32 81.32 -20 82 C-22.19 81.81 -22.19 81.81 -25 81 C-29.39 76.95 -33.01 72.37 -36.72 67.72 C-39.01 64.98 -41.44 62.49 -44 60 C-44.99 60.33 -45.98 60.66 -47 61 C-48.7 62.63 -50.36 64.31 -52 66 C-54.25 68.13 -56.53 70.22 -58.81 72.31 C-59.41 72.86 -60.01 73.41 -60.62 73.98 C-62.08 75.32 -63.54 76.66 -65 78 C-65.66 78 -66.32 78 -67 78 C-67.22 78.57 -67.45 79.14 -67.68 79.73 C-69 82 -69 82 -71.36 84.11 C-72.29 84.84 -73.22 85.56 -74.19 86.31 C-78.16 89.47 -81.82 92.7 -85.35 96.34 C-87.67 98.67 -90.16 100.78 -92.64 102.93 C-95.58 105.51 -98.45 108.16 -101.31 110.81 C-109.24 118.15 -117.17 125.47 -125.34 132.53 C-126.96 133.96 -128.49 135.46 -130 137 C-131.69 136.81 -131.69 136.81 -134 136 C-138.05 132.16 -141.78 128.01 -145.54 123.88 C-146.02 123.35 -146.51 122.82 -147 122.28 C-147.49 121.74 -147.98 121.2 -148.49 120.65 C-150.01 118.99 -151.55 117.34 -153.09 115.69 C-153.59 115.16 -154.09 114.62 -154.6 114.07 C-155.99 112.58 -157.39 111.08 -158.79 109.59 C-160.65 107.41 -161.9 105.63 -163 103 C-163.99 103 -164.98 103 -166 103 C-166.5 104.49 -166.5 104.49 -167 106 C-168.66 107.48 -170.37 108.89 -172.12 110.25 C-176.12 113.43 -179.8 116.67 -183.34 120.34 C-185.68 122.69 -188.19 124.82 -190.7 126.98 C-193.51 129.44 -196.25 131.97 -199 134.5 C-202.24 137.48 -205.48 140.44 -208.81 143.31 C-212.69 146.66 -216.4 150.18 -220.12 153.69 C-225.64 158.87 -231.27 163.89 -237.05 168.78 C-242.13 173.09 -247.08 177.51 -252 182 C-253.65 181.67 -255.3 181.34 -257 181 C-257.56 180.28 -258.11 179.56 -258.69 178.81 C-260.98 176.02 -263.41 173.52 -266 171 C-267.33 169.67 -268.67 168.33 -270 167 C-270 165.35 -270 163.7 -270 162 C-263.89 156.26 -257.8 150.55 -251.25 145.31 C-246.9 141.82 -242.99 138.09 -239.1 134.11 C-236.6 131.6 -233.98 129.31 -231.3 127.01 C-228.31 124.4 -225.41 121.7 -222.5 119 C-218.41 115.21 -214.3 111.48 -210.08 107.83 C-206.86 105 -203.72 102.09 -200.56 99.19 C-196.57 95.52 -192.54 91.88 -188.5 88.25 C-185.78 85.81 -183.08 83.34 -180.38 80.88 C-176.48 77.33 -172.55 73.82 -168.56 70.38 C-167.33 69.29 -166.16 68.16 -165 67 C-163.35 67.33 -161.7 67.66 -160 68 C-145.35 83.6 -145.35 83.6 -139 91 C-137.69 92.5 -136.38 94 -135.06 95.5 C-134.04 96.67 -133.02 97.83 -132 99 C-129.65 98.8 -129.65 98.8 -127 98 C-124.74 96.19 -124.74 96.19 -122.69 93.88 C-119.96 91.02 -117.25 88.26 -114.25 85.69 C-110.59 82.54 -107.04 79.28 -103.5 76 C-99.42 72.21 -95.3 68.48 -91.09 64.84 C-87.83 61.97 -84.64 59.01 -81.44 56.06 C-77.88 52.79 -74.27 49.6 -70.62 46.44 C-68.67 44.7 -66.81 42.89 -65 41 C-65.28 39.14 -65.28 39.14 -66 37 C-67.37 35.05 -67.37 35.05 -69.12 33.19 C-69.75 32.5 -70.38 31.81 -71.02 31.09 C-73.95 27.99 -76.95 24.98 -80 22 C-81 21 -82 20 -83 19 C-83 17.35 -83 15.7 -83 14 C-82.34 13.34 -81.68 12.68 -81 12 C-56.47 7.78 -56.47 7.78 -44.14 6.49 C-41.08 6.14 -41.08 6.14 -38.68 5.04 C-33.6 3.07 -28.12 2.65 -22.75 1.88 C-21.56 1.69 -20.37 1.51 -19.14 1.32 C-12.69 0.38 -6.52 -0.21 0 0 Z " fill="#F8FAFA" transform="translate(677,171)"/>
<path d="M0 0 C17.49 0 34.98 0 53 0 C54.32 0.99 55.64 1.98 57 3 C57 56.13 57 109.26 57 164 C54.52 165.98 54.52 165.98 52 168 C34.84 168 17.68 168 0 168 C-1.32 166.68 -2.64 165.36 -4 164 C-4 111.2 -4 58.4 -4 4 C-2.68 2.68 -1.36 1.36 0 0 Z " fill="#FCFDFD" transform="translate(607,285)"/>
<path d="M0 0 C1.02 0 2.04 0 3.09 0 C4.19 0.01 5.29 0.01 6.43 0.02 C7.55 0.02 8.68 0.02 9.84 0.02 C13.45 0.03 17.06 0.04 20.67 0.05 C23.11 0.06 25.55 0.06 28 0.06 C33.99 0.08 39.98 0.09 45.98 0.11 C48.45 2.09 48.45 2.09 50.98 4.11 C50.98 41.07 50.98 78.03 50.98 116.11 C49.33 118.09 47.68 120.07 45.98 122.11 C28.82 122.11 11.66 122.11 -6.02 122.11 C-7.67 120.13 -9.32 118.15 -11.02 116.11 C-11.02 79.15 -11.02 42.19 -11.02 4.11 C-10.03 3.12 -9.04 2.13 -8.02 1.11 C-5.04 0.12 -3.11 -0.01 0 0 Z " fill="#FBFCFC" transform="translate(522.022216796875,330.886474609375)"/>
<path d="M0 0 C17.82 0 35.64 0 54 0 C55.32 1.32 56.64 2.64 58 4 C58 26.11 58 48.22 58 71 C56.35 72.65 54.7 74.3 53 76 C35.84 76 18.68 76 1 76 C-0.32 74.68 -1.64 73.36 -3 72 C-3 49.23 -3 26.46 -3 3 C-2.01 2.01 -1.02 1.02 0 0 Z " fill="#FBFCFC" transform="translate(423,377)"/>
<path d="M0 0 C2.48 0.5 2.48 0.5 5 1 C5 1.66 5 2.32 5 3 C5.68 3.27 6.36 3.54 7.06 3.81 C10 5 10 5 13.12 6.56 C17.24 8.37 21.4 8.58 25.84 8.89 C26.55 8.92 27.27 8.96 28 9 C29.17 11.58 29.97 13.74 30.25 16.57 C30.24 17.94 30.24 17.94 30.24 19.35 C30.24 20.41 30.25 21.46 30.25 22.55 C30.24 23.71 30.23 24.86 30.23 26.04 C30.23 27.26 30.23 28.48 30.23 29.74 C30.23 33.08 30.22 36.41 30.2 39.75 C30.19 43.24 30.19 46.73 30.19 50.22 C30.18 56.82 30.16 63.43 30.14 70.03 C30.12 77.55 30.11 85.08 30.1 92.6 C30.08 108.06 30.04 123.53 30 139 C27.03 138.67 24.06 138.34 21 138 C20.35 137.07 20.35 137.07 19.69 136.12 C18.8 135.42 17.91 134.72 17 134 C14.29 133.34 11.62 132.94 8.85 132.59 C6 132 6 132 0 129 C0 86.43 0 43.86 0 0 Z " fill="#081F46" transform="translate(312,509)"/>
<path d="M0 0 C2.34 0.35 2.34 0.35 5 1 C7.56 3.38 7.56 3.38 10 6 C12.03 7.73 12.03 7.73 14 9 C14.99 9.33 15.98 9.66 17 10 C17 10.66 17 11.32 17 12 C19.64 12.33 22.28 12.66 25 13 C25 56.23 25 99.46 25 144 C23.35 144 21.7 144 20 144 C17.47 142.9 15.35 141.47 13 140 C13 139.34 13 138.68 13 138 C12.11 137.73 11.23 137.46 10.31 137.19 C7.19 136.07 4.71 134.88 2 133 C1.34 132.01 0.68 131.02 0 130 C-0.25 127.6 -0.25 127.6 -0.24 124.7 C-0.24 123.61 -0.25 122.51 -0.25 121.38 C-0.24 120.17 -0.23 118.97 -0.23 117.73 C-0.23 116.46 -0.23 115.19 -0.23 113.88 C-0.23 110.4 -0.22 106.92 -0.2 103.45 C-0.19 99.81 -0.19 96.17 -0.19 92.54 C-0.18 85.65 -0.16 78.77 -0.14 71.88 C-0.12 64.05 -0.11 56.21 -0.1 48.37 C-0.08 32.25 -0.04 16.12 0 0 Z " fill="#091F46" transform="translate(262,479)"/>
<path d="M0 0 C2.65 -0.18 5.19 -0.26 7.83 -0.23 C8.61 -0.23 9.39 -0.23 10.2 -0.23 C12.74 -0.23 15.27 -0.21 17.81 -0.19 C19.54 -0.18 21.28 -0.17 23.01 -0.17 C35.36 -0.1 47.67 0.22 60 1 C60 1.33 60 1.66 60 2 C40.2 2.33 20.4 2.66 0 3 C-0.92 5.76 -1.13 7.38 -1.13 10.22 C-1.13 11.09 -1.13 11.95 -1.13 12.84 C-1.13 13.79 -1.13 14.74 -1.13 15.72 C-1.13 16.73 -1.13 17.74 -1.13 18.78 C-1.14 22.18 -1.13 25.58 -1.13 28.98 C-1.13 31.41 -1.13 33.84 -1.13 36.27 C-1.14 42.2 -1.14 48.13 -1.14 54.05 C-1.13 58.87 -1.13 63.68 -1.13 68.5 C-1.13 69.18 -1.13 69.86 -1.13 70.57 C-1.13 71.96 -1.13 73.35 -1.14 74.74 C-1.14 87.79 -1.13 100.83 -1.13 113.88 C-1.12 125.08 -1.13 136.28 -1.13 147.48 C-1.14 160.48 -1.14 173.48 -1.13 186.48 C-1.13 187.87 -1.13 189.25 -1.13 190.64 C-1.13 191.32 -1.13 192 -1.13 192.7 C-1.13 197.51 -1.13 202.33 -1.14 207.14 C-1.14 213.61 -1.14 220.08 -1.13 226.55 C-1.13 228.93 -1.13 231.31 -1.13 233.69 C-1.14 236.93 -1.13 240.17 -1.13 243.4 C-1.13 244.36 -1.13 245.31 -1.13 246.29 C-1.13 247.15 -1.13 248.02 -1.13 248.9 C-1.13 249.65 -1.13 250.4 -1.13 251.17 C-1.08 251.77 -1.04 252.38 -1 253 C-0.67 253.66 -0.34 254.32 0 255 C32.67 255.49 32.67 255.49 66 256 C65.67 256.66 65.34 257.32 65 258 C42.89 258 20.78 258 -2 258 C-2.99 256.68 -3.98 255.36 -5 254 C-5.2 222.76 -5.38 191.53 -5.54 160.29 C-5.55 156.6 -5.57 152.91 -5.59 149.23 C-5.6 148.49 -5.6 147.76 -5.6 147 C-5.66 135.11 -5.74 123.23 -5.81 111.34 C-5.89 99.14 -5.96 86.94 -6.01 74.75 C-6.05 67.22 -6.09 59.69 -6.15 52.17 C-6.19 46.4 -6.21 40.62 -6.23 34.85 C-6.24 32.49 -6.26 30.12 -6.28 27.75 C-6.31 24.52 -6.32 21.29 -6.32 18.06 C-6.34 17.12 -6.35 16.18 -6.36 15.21 C-6.35 12.77 -6.29 10.42 -6 8 C-4.67 4.5 -4.67 4.5 -3 2 C-2.01 1.34 -1.02 0.68 0 0 Z " fill="#435B7F" transform="translate(178,770)"/>
<path d="M0 0 C0.99 0 1.98 0 3 0 C3.97 7.85 4.17 15.62 4.21 23.52 C4.21 24.86 4.22 26.19 4.24 27.52 C4.26 31.13 4.28 34.73 4.3 38.33 C4.33 42.15 4.35 45.96 4.38 49.78 C4.42 56.21 4.46 62.64 4.5 69.07 C4.55 77.21 4.61 85.35 4.66 93.49 C4.71 100.6 4.76 107.71 4.8 114.82 C4.81 116.31 4.82 117.81 4.83 119.31 C4.85 121.47 4.86 123.63 4.87 125.79 C4.88 127.02 4.89 128.25 4.9 129.51 C5 148.34 5 167.17 5 186 C62.91 186.5 62.91 186.5 122 187 C122.99 189.48 122.99 189.48 124 192 C123.34 191.67 122.68 191.34 122 191 C120.39 190.9 118.78 190.85 117.17 190.84 C115.64 190.83 115.64 190.83 114.08 190.81 C112.95 190.81 111.83 190.8 110.67 190.79 C109.47 190.78 108.27 190.77 107.03 190.76 C103.13 190.73 99.23 190.71 95.34 190.68 C92.94 190.67 90.53 190.65 88.13 190.63 C79.21 190.56 70.29 190.5 61.38 190.44 C31.49 190.22 31.49 190.22 1 190 C0.67 127.3 0.34 64.6 0 0 Z " fill="#304871" transform="translate(807,773)"/>
<path d="M0 0 C21.78 0 43.56 0 66 0 C66 0.66 66 1.32 66 2 C66.99 2.33 67.98 2.66 69 3 C69.33 31.38 69.66 59.76 70 89 C74.66 91.16 74.66 91.16 78.6 91.24 C80.01 91.25 81.41 91.24 82.82 91.23 C83.59 91.23 84.36 91.23 85.16 91.23 C87.69 91.23 90.23 91.21 92.77 91.2 C94.53 91.19 96.3 91.19 98.06 91.19 C102.7 91.18 107.33 91.16 111.96 91.14 C116.7 91.12 121.43 91.11 126.16 91.1 C135.44 91.08 144.72 91.04 154 91 C154.01 89.38 154.01 89.38 154.02 87.72 C154.1 77.52 154.19 67.32 154.29 57.13 C154.34 51.88 154.38 46.64 154.42 41.4 C154.46 36.34 154.51 31.28 154.56 26.22 C154.58 24.29 154.59 22.36 154.6 20.43 C154.62 17.73 154.65 15.03 154.68 12.33 C154.68 11.12 154.68 11.12 154.69 9.89 C154.72 7.93 154.85 5.96 155 4 C155.66 3.01 156.32 2.02 157 1 C157.99 1.33 158.98 1.66 160 2 C159.34 2.66 158.68 3.32 158 4 C157.67 33.7 157.34 63.4 157 94 C127.3 94 97.6 94 67 94 C66.67 64.63 66.34 35.26 66 5 C65.01 4.01 64.02 3.02 63 2 C42.21 1.67 21.42 1.34 0 1 C0 0.67 0 0.34 0 0 Z " fill="#1D3667" transform="translate(464,771)"/>
<path d="M0 0 C0.33 0 0.66 0 1 0 C1 1.28 1.01 2.56 1.01 3.88 C1.11 34.28 1.22 64.67 1.33 95.06 C1.34 98.8 1.36 102.54 1.37 106.27 C1.38 107.02 1.38 107.76 1.38 108.53 C1.42 120.59 1.47 132.65 1.5 144.72 C1.55 157.08 1.59 169.45 1.64 181.82 C1.67 189.46 1.69 197.1 1.72 204.73 C1.73 210.58 1.76 216.43 1.78 222.28 C1.79 224.68 1.8 227.09 1.8 229.5 C1.81 232.77 1.83 236.04 1.84 239.31 C1.84 240.27 1.84 241.23 1.84 242.22 C1.85 243.1 1.86 243.97 1.86 244.87 C1.86 245.62 1.87 246.38 1.87 247.16 C1.91 247.76 1.96 248.37 2 249 C2.33 249.66 2.66 250.32 3 251 C1.68 251 0.36 251 -1 251 C-1 168.5 -1 86 -1 1 C-0.67 0.67 -0.34 0.34 0 0 Z " fill="#607694" transform="translate(738,775)"/>
<path d="M0 0 C39.93 0 79.86 0 121 0 C121.99 0.99 121.99 0.99 123 2 C123 20.81 123 39.62 123 59 C121.68 60.32 120.36 61.64 119 63 C57.62 63 -3.76 63 -67 63 C-67 62.67 -67 62.34 -67 62 C-5.95 62 55.1 62 118 62 C118.33 61.01 118.66 60.02 119 59 C119.66 59 120.32 59 121 59 C120.67 40.19 120.34 21.38 120 2 C80.4 1.67 40.8 1.34 0 1 C0 0.67 0 0.34 0 0 Z " fill="#BBCCDA" transform="translate(808,963)"/>
<path d="M0 0 C0.66 0.33 1.32 0.66 2 1 C4.91 12.69 5.41 23.7 5.33 35.7 C5.33 37.62 5.32 39.54 5.32 41.46 C5.32 46.62 5.29 51.77 5.27 56.92 C5.24 61.22 5.23 65.51 5.22 69.81 C5.18 83.11 5.11 96.41 5.02 109.72 C5 112.96 4.98 116.2 4.96 119.45 C4.88 132.43 4.78 145.41 4.65 158.4 C4.63 161.18 4.6 163.97 4.58 166.75 C4.54 171.11 4.5 175.46 4.44 179.82 C4.42 181.4 4.41 182.99 4.4 184.58 C4.38 186.74 4.35 188.9 4.32 191.06 C4.31 192.26 4.29 193.46 4.28 194.7 C3.99 198.1 3.19 200.82 2 204 C1.69 205.4 1.41 206.82 1.18 208.23 C1.06 208.97 0.93 209.71 0.81 210.47 C0.68 211.22 0.56 211.98 0.44 212.75 C-0.87 220.75 -0.87 220.75 -2 223 C-2.66 223 -3.32 223 -4 223 C-4.1 224.01 -4.2 225.02 -4.3 226.07 C-5.04 230.22 -6.31 233.2 -8.25 236.94 C-8.56 237.55 -8.88 238.16 -9.2 238.79 C-11.27 242.75 -13.49 246.57 -15.93 250.31 C-17.49 252.78 -18.75 255.37 -20 258 C-20.66 258 -21.32 258 -22 258 C-21.19 255.19 -21.19 255.19 -20 252 C-19 251 -18 250 -17 249 C-16.25 247.31 -15.51 245.62 -14.82 243.91 C-13 239.68 -10.54 235.82 -8 232 C-4.12 221.1 -1.36 209.77 0.57 198.38 C1 196 1 196 1.52 194.3 C2.19 191.11 2.13 188.05 2.13 184.78 C2.14 184.06 2.14 183.33 2.14 182.58 C2.15 180.14 2.15 177.7 2.15 175.26 C2.15 173.51 2.15 171.76 2.16 170.01 C2.16 165.25 2.17 160.5 2.17 155.75 C2.17 152.77 2.17 149.8 2.17 146.83 C2.18 136.46 2.19 126.09 2.19 115.72 C2.18 106.06 2.2 96.4 2.21 86.74 C2.22 78.44 2.23 70.14 2.23 61.84 C2.23 56.89 2.23 51.93 2.24 46.98 C2.25 42.32 2.25 37.65 2.24 32.99 C2.24 31.28 2.25 29.58 2.25 27.87 C2.28 19.65 2.15 12 0 4 C0 2.68 0 1.36 0 0 Z " fill="#112C61" transform="translate(905,292)"/>
<path d="M0 0 C22.44 0 44.88 0 68 0 C68.5 0.5 68.5 0.5 69 1 C69.07 54.98 68.9 108.95 68.55 162.92 C68.49 172.68 68.43 182.44 68.37 192.2 C68.25 212.13 68.13 232.07 68 252 C67.34 251.67 66.68 251.34 66 251 C66 169.16 66 87.32 66 3 C65.5 2.5 65.5 2.5 65 2 C43.55 1.67 22.1 1.34 0 1 C0 0.67 0 0.34 0 0 Z " fill="#4F6485" transform="translate(624,772)"/>
<path d="M0 0 C30.03 0 60.06 0 91 0 C91.06 6.82 91.12 13.65 91.18 20.68 C91.22 24.99 91.26 29.31 91.31 33.62 C91.37 40.48 91.44 47.33 91.5 54.19 C91.54 59.71 91.6 65.23 91.65 70.76 C91.67 72.87 91.69 74.98 91.71 77.09 C91.73 80.04 91.76 82.99 91.79 85.94 C91.8 86.82 91.81 87.69 91.81 88.6 C91.85 91.97 91.93 94.78 93 98 C92.34 98.66 91.68 99.32 91 100 C90.67 99.34 90.34 98.68 90 98 C89.91 94.95 89.87 91.92 89.89 88.87 C89.89 87.92 89.89 86.98 89.89 86 C89.89 82.86 89.89 79.72 89.9 76.59 C89.9 74.41 89.91 72.24 89.91 70.07 C89.91 64.35 89.92 58.62 89.93 52.9 C89.94 46.03 89.95 39.17 89.95 32.3 C89.96 21.87 89.98 11.44 90 1 C60.96 1 31.92 1 2 1 C2 32.02 2 63.04 2 95 C1.34 95 0.68 95 0 95 C0 63.65 0 32.3 0 0 Z " fill="#53698C" transform="translate(530,927)"/>
<path d="M0 0 C2.06 -0.06 4.13 -0.06 6.19 -0.02 C8.15 0.01 8.15 0.01 10.14 0.04 C11.56 0.07 12.99 0.09 14.41 0.12 C15.87 0.15 17.32 0.17 18.78 0.19 C22.61 0.26 26.44 0.32 30.27 0.39 C34.18 0.47 38.08 0.53 41.99 0.6 C49.66 0.72 57.33 0.86 65 1 C65 1.33 65 1.66 65 2 C43.88 2.33 22.76 2.66 1 3 C0.01 3.99 -0.98 4.98 -2 6 C-2.33 87.51 -2.66 169.02 -3 253 C-3.33 253 -3.66 253 -4 253 C-4.79 230.93 -5.08 208.88 -5.06 186.79 C-5.05 184.72 -5.05 182.65 -5.05 180.58 C-5.03 149.57 -4.91 118.56 -4.71 87.55 C-4.66 78.62 -4.61 69.69 -4.57 60.77 C-4.54 54.34 -4.5 47.9 -4.46 41.47 C-4.43 37.68 -4.41 33.89 -4.4 30.1 C-4.38 25.95 -4.35 21.8 -4.32 17.64 C-4.32 16.41 -4.31 15.18 -4.31 13.91 C-4.3 12.79 -4.29 11.67 -4.28 10.51 C-4.27 9.54 -4.27 8.56 -4.26 7.56 C-4 5 -4 5 -2.98 2.66 C-2.66 2.11 -2.33 1.56 -2 1 C-1.34 0.67 -0.68 0.34 0 0 Z " fill="#173267" transform="translate(740,770)"/>
<path d="M0 0 C29.04 0 58.08 0 88 0 C88 31.02 88 62.04 88 94 C87.67 94 87.34 94 87 94 C86.67 63.97 86.34 33.94 86 3 C58.94 3 31.88 3 4 3 C3.34 3.66 2.68 4.32 2 5 C1.67 35.03 1.34 65.06 1 96 C0.01 96.49 0.01 96.49 -1 97 C-0.67 64.99 -0.34 32.98 0 0 Z " fill="#183367" transform="translate(532,928)"/>
<path d="M0 0 C0.99 0.33 1.98 0.66 3 1 C2.67 45.22 2.34 89.44 2 135 C0.68 136.32 -0.64 137.64 -2 139 C-22.79 139 -43.58 139 -65 139 C-65 138.67 -65 138.34 -65 138 C-64.26 137.99 -63.52 137.98 -62.76 137.97 C-55.77 137.87 -48.78 137.77 -41.79 137.66 C-38.2 137.61 -34.6 137.55 -31.01 137.5 C-27.54 137.45 -24.07 137.4 -20.61 137.35 C-18.64 137.32 -16.68 137.29 -14.71 137.27 C-13.51 137.25 -12.31 137.23 -11.08 137.21 C-10.02 137.19 -8.97 137.17 -7.88 137.16 C-4.62 137.05 -4.62 137.05 0 136 C0 91.12 0 46.24 0 0 Z " fill="#B6C7DC" transform="translate(243,887)"/>
<path d="M0 0 C0.99 0.5 0.99 0.5 2 1 C2.96 3.87 3.14 5.71 3.16 8.69 C3.18 9.66 3.19 10.63 3.2 11.63 C3.21 12.7 3.21 13.77 3.22 14.86 C3.23 15.99 3.24 17.12 3.26 18.29 C3.29 22.08 3.32 25.87 3.35 29.67 C3.37 31.68 3.39 33.69 3.4 35.7 C3.48 43.68 3.54 51.66 3.59 59.64 C3.62 63.42 3.65 67.19 3.68 70.97 C4.13 130.65 3.8 190.32 3 250 C2.67 250 2.34 250 2 250 C1.67 169.15 1.34 88.3 1 5 C-0.32 4.01 -1.64 3.02 -3 2 C-33.19 1.5 -33.19 1.5 -64 1 C-64 0.67 -64 0.34 -64 0 C-56.39 -0.15 -48.79 -0.3 -41.18 -0.44 C-37.65 -0.51 -34.12 -0.58 -30.58 -0.65 C-26.52 -0.73 -22.46 -0.81 -18.39 -0.88 C-16.5 -0.92 -16.5 -0.92 -14.56 -0.96 C-13.38 -0.98 -12.2 -1 -10.98 -1.02 C-9.95 -1.04 -8.91 -1.06 -7.84 -1.08 C-5.09 -1 -2.66 -0.66 0 0 Z " fill="#152F63" transform="translate(413,771)"/>
<path d="M0 0 C7.66 -0.11 7.66 -0.11 10.75 0.88 C11.86 1.43 11.86 1.43 13 2 C13.76 2.37 14.53 2.74 15.31 3.12 C15.87 3.41 16.43 3.7 17 4 C16.01 4.33 15.02 4.66 14 5 C11.74 4.66 11.74 4.66 9.31 4.06 C8.5 3.87 7.7 3.67 6.86 3.47 C6.25 3.32 5.63 3.16 5 3 C4.01 4.49 4.01 4.49 3 6 C2.7 8.21 2.7 8.21 2.75 10.7 C2.75 12.15 2.75 12.15 2.74 13.63 C2.75 14.69 2.75 15.74 2.76 16.83 C2.76 17.95 2.75 19.07 2.75 20.21 C2.75 23.91 2.76 27.61 2.77 31.31 C2.77 33.87 2.77 36.44 2.77 39 C2.77 44.38 2.78 49.76 2.79 55.14 C2.81 61.36 2.82 67.57 2.81 73.79 C2.81 79.77 2.82 85.75 2.83 91.74 C2.83 94.28 2.83 96.83 2.83 99.37 C2.84 102.93 2.84 106.48 2.85 110.04 C2.85 111.62 2.85 111.62 2.85 113.24 C2.86 114.21 2.86 115.18 2.87 116.17 C2.87 117.01 2.87 117.85 2.87 118.72 C2.95 121.32 2.95 121.32 4 125 C6.97 125.99 9.94 126.98 13 128 C12.01 128.33 11.02 128.66 10 129 C7.03 128.01 4.06 127.02 1 126 C0.67 125.34 0.34 124.68 0 124 C-0.09 122.35 -0.12 120.7 -0.12 119.05 C-0.12 118.01 -0.12 116.96 -0.12 115.88 C-0.12 114.73 -0.12 113.58 -0.11 112.39 C-0.11 111.18 -0.11 109.97 -0.11 108.72 C-0.11 105.4 -0.11 102.08 -0.1 98.76 C-0.1 95.29 -0.09 91.82 -0.09 88.35 C-0.09 81.77 -0.08 75.2 -0.07 68.63 C-0.06 61.15 -0.06 53.66 -0.05 46.18 C-0.04 30.79 -0.02 15.39 0 0 Z " fill="#0E285C" transform="translate(366,532)"/>
<path d="M0 0 C0.99 1.32 1.98 2.64 3 4 C3.69 6.75 3.69 6.75 4 9 C3.67 9.33 3.34 9.66 3 10 C3 11.16 3 12.31 3.01 13.5 C3.03 24.51 3.04 35.53 3.05 46.54 C3.06 52.2 3.06 57.86 3.08 63.52 C3.17 112.29 3.17 112.29 2 134 C1.01 134.99 1.01 134.99 0 136 C0 91.12 0 46.24 0 0 Z " fill="#193365" transform="translate(245,888)"/>
<path d="M0 0 C0.66 0.33 1.32 0.66 2 1 C1.67 45.22 1.34 89.44 1 135 C-0.32 134.34 -1.64 133.68 -3 133 C-4.65 129.7 -6.3 126.4 -8 123 C-7.34 123 -6.68 123 -6 123 C-6 123.66 -6 124.32 -6 125 C-5.34 125 -4.68 125 -4 125 C-3.67 125.99 -3.34 126.98 -3 128 C-2.01 125.03 -1.87 123.08 -1.85 119.98 C-1.84 118.95 -1.83 117.91 -1.82 116.84 C-1.82 115.71 -1.81 114.57 -1.81 113.4 C-1.8 112.2 -1.79 111.01 -1.79 109.77 C-1.76 106.49 -1.75 103.21 -1.73 99.92 C-1.71 96.49 -1.69 93.06 -1.66 89.63 C-1.6 80.15 -1.54 70.68 -1.49 61.21 C-1.44 52.52 -1.38 43.84 -1.32 35.16 C-1.3 31.74 -1.28 28.32 -1.26 24.9 C-1.24 21.09 -1.22 17.28 -1.19 13.47 C-1.19 12.33 -1.18 11.19 -1.18 10.02 C-1.17 8.99 -1.16 7.95 -1.15 6.89 C-1.15 5.99 -1.14 5.09 -1.14 4.16 C-1.09 3.45 -1.05 2.73 -1 2 C-0.67 1.34 -0.34 0.68 0 0 Z " fill="#526787" transform="translate(344,773)"/>
<path d="M0 0 C1.02 0 2.04 0 3.09 0 C4.19 0.01 5.29 0.01 6.43 0.02 C7.55 0.02 8.68 0.02 9.84 0.02 C13.45 0.03 17.06 0.04 20.67 0.05 C23.11 0.06 25.55 0.06 28 0.06 C33.99 0.08 39.98 0.09 45.98 0.11 C45.98 0.44 45.98 0.77 45.98 1.11 C29.48 1.44 12.98 1.77 -4.02 2.11 C-5.34 3.43 -6.66 4.75 -8.02 6.11 C-8.35 43.07 -8.68 80.03 -9.02 118.11 C-9.68 117.45 -10.34 116.79 -11.02 116.11 C-11.02 79.15 -11.02 42.19 -11.02 4.11 C-10.03 3.12 -9.04 2.13 -8.02 1.11 C-5.04 0.12 -3.11 -0.01 0 0 Z " fill="#BEC7D0" transform="translate(522.022216796875,330.886474609375)"/>
<path d="M0 0 C6.29 0.43 11.94 1.19 18 3 C23.72 4.14 29.43 5 35.25 5.44 C39.75 5.8 44.07 6.56 48.5 7.44 C67.5 11.13 86.69 11.66 106 12 C106.69 12.01 107.37 12.02 108.08 12.04 C134.1 12.47 160.02 11.38 186 10 C186 10.33 186 10.66 186 11 C183.31 11.32 180.63 11.63 177.94 11.94 C177.2 12.02 176.47 12.11 175.72 12.2 C162.87 13.66 150.05 14.17 137.12 14.24 C136.03 14.25 136.03 14.25 134.91 14.25 C129.42 14.29 123.93 14.3 118.44 14.31 C117.63 14.31 116.83 14.32 116 14.32 C92.53 14.37 69.4 13.87 46.13 10.45 C43.38 10.05 40.63 9.72 37.87 9.43 C32.82 8.87 28.1 7.79 23.19 6.5 C18.45 5.3 13.87 4.47 9 4 C9 3.34 9 2.68 9 2 C6.03 1.67 3.06 1.34 0 1 C0 0.67 0 0.34 0 0 Z " fill="#112C62" transform="translate(418,546)"/>
<path d="M0 0 C1.92 0.25 3.82 0.57 5.73 0.91 C5.4 1.57 5.07 2.23 4.73 2.91 C4.07 2.96 3.42 3.01 2.74 3.06 C-0.26 3.3 -3.27 3.54 -6.27 3.79 C-7.3 3.86 -8.33 3.94 -9.39 4.02 C-13.82 4.39 -18.08 4.75 -22.36 5.95 C-27.15 7.27 -31.95 7.33 -36.9 7.47 C-38.72 7.53 -40.55 7.6 -42.38 7.66 C-43.17 7.69 -43.97 7.71 -44.79 7.74 C-47.33 7.87 -47.33 7.87 -50 8.41 C-53.44 8.94 -56.69 9.04 -60.17 9.06 C-60.83 9.06 -61.49 9.06 -62.18 9.07 C-64.36 9.08 -66.55 9.08 -68.73 9.08 C-70.28 9.08 -71.82 9.08 -73.37 9.09 C-76.62 9.09 -79.87 9.1 -83.11 9.1 C-86.39 9.1 -89.68 9.1 -92.96 9.12 C-118.31 9.22 -143.15 8.39 -168.22 4.24 C-171.23 3.75 -174.25 3.33 -177.27 2.91 C-177.27 2.58 -177.27 2.25 -177.27 1.91 C-170.45 1.48 -164.04 2.2 -157.34 3.29 C-121.59 8.8 -84.47 7.72 -48.46 6.1 C-47.19 6.05 -47.19 6.05 -45.89 5.99 C-33.89 5.54 -33.89 5.54 -22.32 2.53 C-19.1 1.55 -15.98 1.82 -12.65 1.94 C-10.27 1.91 -8.42 1.52 -6.15 0.85 C-2.27 -0.09 -2.27 -0.09 0 0 Z " fill="#122D65" transform="translate(631.2734375,674.08984375)"/>
<path d="M0 0 C2.64 0 5.28 0 8 0 C9.17 2.58 9.97 4.74 10.25 7.57 C10.24 8.48 10.24 9.4 10.24 10.35 C10.24 11.41 10.25 12.46 10.25 13.55 C10.24 14.71 10.23 15.86 10.23 17.04 C10.23 18.26 10.23 19.48 10.23 20.74 C10.23 24.08 10.22 27.41 10.2 30.75 C10.19 34.24 10.19 37.73 10.19 41.22 C10.18 47.82 10.16 54.43 10.14 61.03 C10.12 68.55 10.11 76.08 10.1 83.6 C10.08 99.06 10.04 114.53 10 130 C8.68 129.67 7.36 129.34 6 129 C6.49 127.92 6.49 127.92 6.99 126.82 C8.09 124.11 8.09 124.11 8.23 121.51 C8.22 120.63 8.21 119.75 8.2 118.84 C8.2 117.83 8.19 116.81 8.19 115.76 C8.17 114.66 8.15 113.55 8.14 112.42 C8.12 110.66 8.12 110.66 8.11 108.87 C8.07 105 8.02 101.13 7.98 97.26 C7.95 94.58 7.93 91.9 7.9 89.21 C7.84 82.87 7.77 76.53 7.7 70.19 C7.62 62.98 7.54 55.76 7.47 48.54 C7.33 33.69 7.17 18.85 7 4 C4.69 3.01 2.38 2.02 0 1 C0 0.67 0 0.34 0 0 Z " fill="#0C2558" transform="translate(332,518)"/>
<path d="M0 0 C20.79 0 41.58 0 63 0 C63.99 1.49 63.99 1.49 65 3 C64.13 2.84 63.26 2.67 62.37 2.51 C59.21 2.03 56.28 1.88 53.09 1.89 C51.38 1.89 51.38 1.89 49.63 1.89 C47.81 1.89 47.81 1.89 45.95 1.9 C44.69 1.9 43.43 1.91 42.14 1.91 C38.81 1.91 35.49 1.92 32.16 1.93 C28.77 1.94 25.37 1.95 21.97 1.95 C15.31 1.96 8.66 1.98 2 2 C1.67 2.66 1.34 3.32 1 4 C0.89 6.37 0.85 8.71 0.84 11.07 C0.84 11.81 0.83 12.55 0.83 13.31 C0.81 15.79 0.8 18.27 0.79 20.75 C0.79 22.52 0.78 24.3 0.76 26.07 C0.74 30.9 0.72 35.72 0.7 40.55 C0.67 45.59 0.65 50.63 0.62 55.67 C0.57 65.22 0.53 74.76 0.48 84.31 C0.43 95.18 0.38 106.05 0.32 116.92 C0.21 139.28 0.1 161.64 0 184 C-0.33 184 -0.66 184 -1 184 C-1.02 160.45 -1.04 136.9 -1.05 113.36 C-1.06 102.42 -1.06 91.49 -1.08 80.56 C-1.09 71.03 -1.09 61.5 -1.09 51.98 C-1.1 46.93 -1.1 41.88 -1.11 36.84 C-1.11 32.09 -1.11 27.34 -1.11 22.6 C-1.11 20.85 -1.12 19.11 -1.12 17.36 C-1.12 14.99 -1.12 12.61 -1.12 10.23 C-1.12 9.54 -1.13 8.84 -1.13 8.12 C-1.12 5.13 -0.96 2.87 0 0 Z " fill="#EDFBFE" transform="translate(177,773)"/>
<path d="M0 0 C17.49 0 34.98 0 53 0 C53 0.33 53 0.66 53 1 C27.75 1.5 27.75 1.5 2 2 C0.68 3.32 -0.64 4.64 -2 6 C-2.02 25.98 -2.04 45.95 -2.05 65.93 C-2.06 75.2 -2.06 84.48 -2.08 93.75 C-2.09 101.84 -2.09 109.92 -2.09 118 C-2.1 122.28 -2.1 126.57 -2.11 130.85 C-2.11 134.88 -2.11 138.91 -2.11 142.94 C-2.11 144.41 -2.12 145.89 -2.12 147.37 C-2.12 149.39 -2.12 151.41 -2.12 153.43 C-2.12 155.13 -2.12 155.13 -2.12 156.86 C-2 159.98 -1.58 162.93 -1 166 C-1.99 165.34 -2.98 164.68 -4 164 C-4 111.2 -4 58.4 -4 4 C-2.68 2.68 -1.36 1.36 0 0 Z " fill="#D0DBE5" transform="translate(607,285)"/>
<path d="M0 0 C2.77 -0.34 2.77 -0.34 5.74 -0.29 C7.34 -0.28 7.34 -0.28 8.97 -0.26 C10.62 -0.23 10.62 -0.23 12.31 -0.19 C13.43 -0.17 14.56 -0.16 15.71 -0.15 C18.48 -0.11 21.24 -0.06 24 0 C24 0.33 24 0.66 24 1 C43.31 1.5 43.31 1.5 63 2 C63 2.33 63 2.66 63 3 C41.22 3 19.44 3 -3 3 C-3.33 43.92 -3.66 84.84 -4 127 C-4.33 127 -4.66 127 -5 127 C-5 86.08 -5 45.16 -5 3 C-3.35 2.01 -1.7 1.02 0 0 Z " fill="#2F497B" transform="translate(347,770)"/>
<path d="M0 0 C0.33 0 0.66 0 1 0 C1.32 4.58 0.73 8.21 -0.48 12.64 C-2.48 21.11 -2.44 29.35 -2.43 38 C-2.44 39.77 -2.45 41.55 -2.46 43.33 C-2.49 48.11 -2.5 52.89 -2.51 57.67 C-2.52 62.68 -2.54 67.69 -2.57 72.7 C-2.61 82.17 -2.64 91.64 -2.66 101.11 C-2.69 111.89 -2.73 122.68 -2.78 133.47 C-2.87 155.65 -2.94 177.82 -3 200 C-3.33 200 -3.66 200 -4 200 C-4.97 189.94 -5.12 179.97 -5.07 169.88 C-5.06 168.2 -5.06 166.51 -5.05 164.83 C-5.04 160.3 -5.02 155.78 -5 151.25 C-4.98 148.41 -4.97 145.58 -4.96 142.74 C-4.92 132.84 -4.87 122.93 -4.81 113.03 C-4.76 103.82 -4.73 94.6 -4.7 85.39 C-4.67 77.46 -4.64 69.52 -4.59 61.59 C-4.57 56.86 -4.54 52.14 -4.53 47.41 C-4.52 42.97 -4.5 38.52 -4.46 34.08 C-4.45 32.46 -4.45 30.83 -4.45 29.21 C-4.44 15.43 -4.44 15.43 -2.51 9.68 C-1.77 7.86 -1.77 7.86 -1 6 C-0.62 4.01 -0.26 2.01 0 0 Z " fill="#112B60" transform="translate(179,289)"/>
<path d="M0 0 C0.99 1.48 0.99 1.48 2 3 C1.01 3.66 0.02 4.32 -1 5 C-1.33 4.67 -1.66 4.34 -2 4 C-63.38 3.67 -124.76 3.34 -188 3 C-188 2.67 -188 2.34 -188 2 C-187.04 2 -186.09 1.99 -185.1 1.99 C-161.85 1.88 -138.6 1.78 -115.35 1.66 C-104.11 1.61 -92.86 1.55 -81.62 1.5 C-71.82 1.46 -62.03 1.41 -52.23 1.36 C-47.04 1.34 -41.85 1.31 -36.66 1.29 C-31.78 1.27 -26.9 1.25 -22.02 1.22 C-20.22 1.21 -18.43 1.2 -16.63 1.2 C-14.19 1.19 -11.74 1.17 -9.3 1.16 C-8.58 1.16 -7.87 1.16 -7.13 1.16 C-5.42 1.14 -3.71 1.08 -2 1 C-1.34 0.67 -0.68 0.34 0 0 Z " fill="#364D77" transform="translate(929,1024)"/>
<path d="M0 0 C2.65 -0.18 5.19 -0.26 7.83 -0.23 C8.61 -0.23 9.39 -0.23 10.2 -0.23 C12.74 -0.23 15.27 -0.21 17.81 -0.19 C19.54 -0.18 21.28 -0.17 23.01 -0.17 C35.36 -0.1 47.67 0.22 60 1 C60 1.33 60 1.66 60 2 C40.2 2.33 20.4 2.66 0 3 C-0.99 3.99 -1.98 4.98 -3 6 C-3.33 31.08 -3.66 56.16 -4 82 C-4.33 82 -4.66 82 -5 82 C-5.2 72.46 -5.38 62.91 -5.55 53.37 C-5.62 48.93 -5.7 44.5 -5.8 40.07 C-5.89 35.79 -5.97 31.51 -6.03 27.23 C-6.06 25.6 -6.09 23.97 -6.13 22.34 C-6.19 20.05 -6.22 17.76 -6.25 15.47 C-6.29 13.52 -6.29 13.52 -6.32 11.53 C-6 8 -6 8 -4.67 4.66 C-4.12 3.78 -3.57 2.9 -3 2 C-2.01 1.34 -1.02 0.68 0 0 Z " fill="#173165" transform="translate(178,770)"/>
<path d="M0 0 C20.13 0 40.26 0 61 0 C61 0.33 61 0.66 61 1 C62.65 1.33 64.3 1.66 66 2 C66 2.33 66 2.66 66 3 C44.55 3 23.1 3 1 3 C-1.07 6.6 -1.07 6.6 -1.28 9.23 C-1.29 10.04 -1.31 10.84 -1.32 11.68 C-1.34 12.6 -1.36 13.52 -1.38 14.47 C-1.4 15.94 -1.4 15.94 -1.41 17.45 C-1.43 18.47 -1.45 19.48 -1.47 20.53 C-1.53 23.77 -1.58 27.01 -1.62 30.25 C-1.66 32.45 -1.7 34.65 -1.74 36.84 C-1.84 42.23 -1.92 47.61 -2 53 C-2.33 53 -2.66 53 -3 53 C-3.05 46.4 -3.09 39.8 -3.11 33.19 C-3.12 30.95 -3.13 28.7 -3.15 26.46 C-3.18 23.23 -3.19 20 -3.2 16.77 C-3.21 15.77 -3.22 14.77 -3.23 13.73 C-3.23 12.79 -3.23 11.85 -3.23 10.88 C-3.23 10.06 -3.24 9.23 -3.24 8.39 C-2.96 5.63 -2.16 3.51 -1 1 C-0.67 0.67 -0.34 0.34 0 0 Z " fill="#344E81" transform="translate(461,770)"/>
<path d="M0 0 C0.99 0.33 1.98 0.66 3 1 C2.34 1.66 1.68 2.32 1 3 C0.67 32.7 0.34 62.4 0 93 C-0.99 92.67 -1.98 92.34 -3 92 C-2.92 80.45 -2.82 68.9 -2.71 57.34 C-2.66 51.98 -2.62 46.62 -2.58 41.25 C-2.54 36.08 -2.49 30.9 -2.44 25.73 C-2.42 23.75 -2.41 21.78 -2.4 19.8 C-2.38 17.04 -2.35 14.27 -2.32 11.51 C-2.32 10.69 -2.31 9.87 -2.31 9.02 C-2.28 7.01 -2.15 5 -2 3 C-1.34 2.01 -0.68 1.02 0 0 Z " fill="#26406F" transform="translate(621,772)"/>
<path d="M0 0 C1.65 0 3.3 0 5 0 C5 43.23 5 86.46 5 131 C3.35 131 1.7 131 0 131 C-2.53 129.9 -4.65 128.47 -7 127 C-7 126.34 -7 125.68 -7 125 C-7.89 124.73 -8.77 124.46 -9.69 124.19 C-12.77 123.08 -15.26 121.77 -18 120 C-17.5 119.01 -17.5 119.01 -17 118 C-11.93 119.9 -8.16 122.22 -3.99 125.7 C-3.33 126.13 -2.68 126.56 -2 127 C-0.35 127.33 1.3 127.66 3 128 C3 86.75 3 45.5 3 3 C2.01 2.01 1.02 1.02 0 0 Z " fill="#0E285C" transform="translate(282,492)"/>
<path d="M0 0 C5.86 -0.11 11.67 -0 17.52 0.44 C18.74 0.53 19.97 0.62 21.23 0.71 C23.64 0.9 26.05 1.08 28.46 1.27 C48.89 2.84 69.17 3.26 89.65 3.14 C93.55 3.12 97.44 3.11 101.34 3.1 C108.89 3.08 116.45 3.04 124 3 C124 3.33 124 3.66 124 4 C107.22 5.22 90.42 5.22 73.6 5.24 C70.34 5.24 67.09 5.26 63.84 5.28 C42.68 5.43 22.01 4.65 1 2 C0.67 1.34 0.34 0.68 0 0 Z " fill="#0F295E" transform="translate(466,532)"/>
<path d="M0 0 C2.48 0.5 2.48 0.5 5 1 C3.51 1.99 3.51 1.99 2 3 C1.67 44.25 1.34 85.5 1 128 C2.98 128.33 4.96 128.66 7 129 C8.32 130.32 9.64 131.64 11 133 C9.35 132.52 7.71 132.04 6.06 131.56 C5.15 131.3 4.23 131.03 3.29 130.75 C2.53 130.51 1.78 130.26 1 130 C0.67 129.67 0.34 129.34 0 129 C0 86.43 0 43.86 0 0 Z " fill="#0D285D" transform="translate(312,509)"/>
<path d="M0 0 C0.5 0.99 0.5 0.99 1 2 C0.01 3.65 -0.98 5.3 -2 7 C-2.66 7 -3.32 7 -4 7 C-4.66 8.32 -5.32 9.64 -6 11 C-6.66 11 -7.32 11 -8 11 C-8.25 11.73 -8.5 12.46 -8.75 13.21 C-10.12 16.27 -11.67 18.17 -13.94 20.62 C-14.73 21.48 -15.53 22.34 -16.34 23.23 C-20.06 27.11 -23.87 30.89 -27.71 34.65 C-30.12 36.98 -30.12 36.98 -32 40 C-34.97 40.5 -34.97 40.5 -38 41 C-38.43 41.93 -38.43 41.93 -38.88 42.88 C-40 45 -40 45 -42 47 C-42.93 47.27 -43.86 47.54 -44.81 47.81 C-46.39 48.4 -46.39 48.4 -48 49 C-50.83 51.5 -50.83 51.5 -53 54 C-53.66 53.67 -54.32 53.34 -55 53 C-53.68 52.34 -52.36 51.68 -51 51 C-50.8 50.43 -50.6 49.86 -50.39 49.27 C-49.93 48.52 -49.47 47.77 -49 47 C-46.38 45.04 -43.72 43.28 -40.96 41.53 C-36.82 38.81 -34.09 35.88 -31 32 C-29.68 31.3 -28.35 30.63 -27 30 C-25.31 28.36 -23.65 26.69 -22 25 C-20.65 23.85 -19.3 22.7 -17.94 21.56 C-14.61 18.68 -12.24 15.82 -10 12 C-9.53 11.13 -9.05 10.27 -8.56 9.38 C-6.74 6.6 -4.62 5.01 -2 3 C-1.34 2.01 -0.68 1.02 0 0 Z " fill="#102B60" transform="translate(879,402)"/>
<path d="M0 0 C22.44 0 44.88 0 68 0 C68.5 0.5 68.5 0.5 69 1 C69 27.4 69 53.8 69 81 C68.67 81 68.34 81 68 81 C67.67 55.59 67.34 30.18 67 4 C66.01 3.01 66.01 3.01 65 2 C43.55 1.67 22.1 1.34 0 1 C0 0.67 0 0.34 0 0 Z " fill="#3D567F" transform="translate(624,772)"/>
<path d="M0 0 C0 0.33 0 0.66 0 1 C-0.65 1.06 -1.3 1.11 -1.97 1.17 C-4.96 1.42 -7.95 1.68 -10.94 1.94 C-11.96 2.02 -12.98 2.11 -14.03 2.2 C-18.53 2.59 -23.01 2.99 -27.49 3.5 C-33.05 4.14 -38.62 4.56 -44.19 5 C-45.83 5.13 -45.83 5.13 -47.51 5.26 C-55.34 5.88 -63.17 6.47 -71 7 C-71 7.66 -71 8.32 -71 9 C-77.32 10.2 -83.61 11.27 -90 12 C-91.5 12.19 -93 12.37 -94.5 12.56 C-95.65 12.71 -96.81 12.85 -98 13 C-95.25 11.17 -93.1 10.06 -90 9 C-87.57 8.57 -85.13 8.19 -82.69 7.88 C-81.43 7.71 -80.18 7.54 -78.89 7.37 C-77.93 7.25 -76.98 7.12 -76 7 C-75.67 6.67 -75.34 6.34 -75 6 C-59.15 3.85 -43.33 1.85 -27.38 0.75 C-25.67 0.63 -25.67 0.63 -23.92 0.51 C-15.94 0 -7.99 -0.08 0 0 Z " fill="#112C63" transform="translate(513,110)"/>
<path d="M0 0 C21.45 0 42.9 0 65 0 C72 9 72 9 75 13 C75 13.99 75 14.98 75 16 C75.6 16.29 76.2 16.58 76.81 16.88 C79 18 79 18 82 20 C82.5 22.97 82.5 22.97 83 26 C83.66 26 84.32 26 85 26 C84.67 27.32 84.34 28.64 84 30 C80 24.67 76 19.33 72 14 C72 13.34 72 12.68 72 12 C71.34 12 70.68 12 70 12 C69.59 11.45 69.18 10.89 68.76 10.32 C68.22 9.6 67.68 8.87 67.12 8.12 C66.59 7.41 66.06 6.69 65.51 5.95 C64 3.92 64 3.92 62 2 C41.54 1.67 21.08 1.34 0 1 C0 0.67 0 0.34 0 0 Z " fill="#496088" transform="translate(178,772)"/>
<path d="M0 0 C1.95 0.04 1.95 0.04 3.94 0.07 C7.37 0.13 10.81 0.2 14.24 0.27 C17.75 0.34 21.27 0.41 24.78 0.47 C31.66 0.6 38.53 0.74 45.41 0.88 C46.4 1.87 46.4 1.87 47.41 2.88 C24.97 2.88 2.53 2.88 -20.59 2.88 C-20.92 3.87 -21.25 4.86 -21.59 5.88 C-21.92 5.22 -22.25 4.56 -22.59 3.88 C-21.93 2.89 -21.27 1.9 -20.59 0.88 C-13.73 -0.43 -6.96 -0.15 0 0 Z " fill="#153067" transform="translate(641.58984375,769.12109375)"/>
<path d="M0 0 C0.66 0.33 1.32 0.66 2 1 C0.02 4.63 -1.96 8.26 -4 12 C-4.99 12.33 -5.98 12.66 -7 13 C-7.22 13.71 -7.44 14.42 -7.67 15.16 C-9 18 -9 18 -11.34 20.68 C-12.29 21.63 -13.26 22.58 -14.23 23.52 C-14.73 24.02 -15.24 24.53 -15.76 25.05 C-17.38 26.64 -19 28.23 -20.62 29.81 C-21.72 30.9 -22.82 31.98 -23.92 33.07 C-26.61 35.72 -29.3 38.36 -32 41 C-32.66 41 -33.32 41 -34 41 C-34.33 41.99 -34.66 42.98 -35 44 C-36.96 45.39 -38.96 46.72 -41 48 C-41.99 48 -42.98 48 -44 48 C-44.33 48.99 -44.66 49.98 -45 51 C-46.98 51.5 -46.98 51.5 -49 52 C-48.67 51.01 -48.34 50.02 -48 49 C-46.35 48.34 -44.7 47.68 -43 47 C-42.67 46.01 -42.34 45.02 -42 44 C-41.01 43.48 -40.02 42.97 -39 42.44 C-31.38 38.07 -24.89 31.45 -19 25 C-17.62 23.03 -16.28 21.03 -15 19 C-13.42 16.87 -11.79 14.97 -10 13 C-9.36 12.73 -8.71 12.46 -8.05 12.18 C-7.37 11.79 -6.7 11.4 -6 11 C-4.22 8.39 -4.22 8.39 -2.75 5.38 C-2.23 4.37 -1.71 3.37 -1.17 2.34 C-0.79 1.57 -0.4 0.79 0 0 Z " fill="#15316A" transform="translate(881,550)"/>
<path d="M0 0 C0.33 0 0.66 0 1 0 C1 41.25 1 82.5 1 125 C-0.32 124.67 -1.64 124.34 -3 124 C-2.68 123.28 -2.35 122.56 -2.02 121.82 C-0.98 118.95 -0.74 116.91 -0.72 113.88 C-0.71 112.87 -0.7 111.86 -0.69 110.83 C-0.69 109.73 -0.68 108.64 -0.68 107.51 C-0.67 106.35 -0.66 105.19 -0.65 103.99 C-0.62 100.15 -0.6 96.32 -0.59 92.48 C-0.57 89.82 -0.55 87.16 -0.53 84.5 C-0.48 78.21 -0.44 71.93 -0.41 65.64 C-0.37 58.48 -0.32 51.32 -0.27 44.16 C-0.17 29.44 -0.08 14.72 0 0 Z " fill="#122E66" transform="translate(341,523)"/>
<path d="M0 0 C0.99 0 1.98 0 3 0 C2.71 0.58 2.42 1.16 2.12 1.75 C1.42 3.15 0.74 4.55 0.07 5.96 C-1.91 10.1 -4.06 13.45 -7 17 C-7.95 18.45 -8.88 19.91 -9.81 21.38 C-12.28 25.13 -14.97 28.16 -18.21 31.25 C-21.35 34.32 -24.15 37.67 -27 41 C-27.59 41.68 -28.17 42.36 -28.77 43.06 C-30.19 44.71 -31.59 46.35 -33 48 C-34.32 47.67 -35.64 47.34 -37 47 C-35.22 45.22 -33.43 43.45 -31.62 41.69 C-28.95 39.04 -28.95 39.04 -26.62 36.06 C-24.24 33.12 -21.52 30.82 -18.55 28.49 C-16.89 27.05 -16.89 27.05 -15.94 24.96 C-15.63 24.31 -15.32 23.67 -15 23 C-14.22 22.26 -13.43 21.51 -12.62 20.75 C-10.31 18.32 -9.26 16.76 -7.88 13.81 C-7.58 13.14 -7.29 12.46 -6.99 11.77 C-6.66 11.19 -6.34 10.6 -6 10 C-5.01 9.34 -4.02 8.68 -3 8 C-2.01 5.36 -1.02 2.72 0 0 Z " fill="#0D2658" transform="translate(879,413)"/>
<path d="M0 0 C0.33 0 0.66 0 1 0 C1 19.8 1 39.6 1 60 C0.01 60.66 -0.98 61.32 -2 62 C-1.67 41.87 -1.34 21.74 -1 1 C-0.67 0.67 -0.34 0.34 0 0 Z " fill="#203B6B" transform="translate(932,964)"/>
<path d="M0 0 C0.99 0.5 0.99 0.5 2 1 C-4.62 3.37 -11.26 5.07 -18.12 6.56 C-25.44 8.15 -25.44 8.15 -32.67 10.05 C-36.46 11.13 -40.25 11.87 -44.12 12.56 C-49.46 13.53 -49.46 13.53 -54.79 14.59 C-57.55 15.1 -60.2 15.07 -63 15 C-60.85 13.79 -59.09 13.02 -56.64 12.59 C-55.85 12.52 -55.06 12.45 -54.25 12.38 C-53.45 12.3 -52.65 12.23 -51.83 12.15 C-51.22 12.1 -50.62 12.05 -50 12 C-50 11.34 -50 10.68 -50 10 C-48.98 9.88 -47.95 9.76 -46.89 9.63 C-45.53 9.46 -44.17 9.29 -42.81 9.12 C-42.14 9.05 -41.47 8.97 -40.77 8.89 C-37.92 8.53 -35.32 8.13 -32.65 7.05 C-28.49 5.4 -24.14 4.79 -19.75 4 C-13.13 2.79 -6.56 1.5 0 0 Z " fill="#102B61" transform="translate(706,660)"/>
<path d="M0 0 C0.99 0.33 1.98 0.66 3 1 C0.96 1.96 -1.08 2.92 -3.12 3.88 C-4.26 4.41 -5.4 4.94 -6.57 5.49 C-10 7 -10 7 -13.2 8.04 C-15.8 8.93 -17.54 9.9 -19.75 11.5 C-22.05 13.01 -23.85 13.96 -26.52 14.63 C-28.23 14.91 -29.94 15.19 -31.66 15.46 C-34 15.9 -34 15.9 -35.97 17 C-37.36 17.94 -38.69 18.96 -40 20 C-40 19.01 -40 18.02 -40 17 C-29.17 10.59 -18.17 6.4 -6.14 2.74 C-3.98 1.99 -2.02 1.07 0 0 Z " fill="#0A2254" transform="translate(348,141)"/>
<path d="M0 0 C2.28 0.73 2.28 0.73 5 2 C6.84 3.99 6.84 3.99 8.5 6.31 C10.49 9.03 12.4 11.53 14.88 13.81 C15.58 14.53 16.28 15.26 17 16 C17.81 18.31 17.81 18.31 18 20 C18.66 20 19.32 20 20 20 C20 20.66 20 21.32 20 22 C20.99 22.33 21.98 22.66 23 23 C24.03 24.98 25.03 26.98 26 29 C26 29.66 26 30.32 26 31 C24.34 30.41 24.34 30.41 22 29 C20.11 26.83 18.36 24.67 16.62 22.38 C16.14 21.74 15.65 21.11 15.15 20.46 C13.76 18.64 12.38 16.82 11 15 C10.38 14.19 9.76 13.38 9.12 12.54 C6 8.42 2.99 4.22 0 0 Z " fill="#1E3968" transform="translate(302,853)"/>
<path d="M0 0 C6.18 -0.15 11.78 0.29 17.84 1.5 C19.05 1.73 19.05 1.73 20.29 1.96 C22.84 2.44 25.39 2.94 27.94 3.44 C31.3 4.09 34.66 4.73 38.03 5.37 C38.82 5.52 39.62 5.67 40.44 5.83 C45.95 6.86 51.41 7.59 57 8 C57.99 8.99 58.98 9.98 60 11 C51.11 9.94 42.24 8.79 33.38 7.5 C32.53 7.38 31.69 7.26 30.83 7.14 C26.33 6.48 22.32 5.45 18 4 C14.89 3.36 11.76 2.87 8.62 2.38 C7.38 2.17 7.38 2.17 6.11 1.97 C4.07 1.64 2.04 1.32 0 1 C0 0.67 0 0.34 0 0 Z " fill="#102B60" transform="translate(616,113)"/>
<path d="M0 0 C-2.49 1.49 -4.52 2.11 -7.39 2.69 C-8.72 2.89 -10.06 3.09 -11.39 3.29 C-12.1 3.4 -12.8 3.51 -13.53 3.62 C-15.77 3.96 -18.01 4.29 -20.25 4.62 C-21.77 4.86 -23.3 5.09 -24.82 5.32 C-28.55 5.89 -32.27 6.45 -36 7 C-36.33 7.33 -36.66 7.66 -37 8 C-46.34 9.13 -55.61 9.1 -65 9 C-65 8.67 -65 8.34 -65 8 C-64 7.92 -64 7.92 -62.98 7.85 C-59.95 7.61 -56.91 7.37 -53.88 7.12 C-52.83 7.05 -51.78 6.97 -50.7 6.89 C-45.47 6.46 -40.96 5.81 -36 4 C-33.51 3.61 -31.01 3.28 -28.5 3 C-27.09 2.84 -25.67 2.67 -24.26 2.51 C-23.19 2.38 -23.19 2.38 -22.11 2.26 C-17.76 1.72 -13.42 1.04 -9.09 0.37 C-6.03 0 -3.08 -0.06 0 0 Z " fill="#102B61" transform="translate(655,526)"/>
<path d="M0 0 C1.03 0.04 2.06 0.08 3.12 0.12 C1.49 1.54 1.49 1.54 -0.88 3.12 C-3.58 3.91 -3.58 3.91 -6.69 4.48 C-8.41 4.79 -8.41 4.79 -10.17 5.12 C-12 5.43 -12 5.43 -13.88 5.75 C-15.12 5.97 -16.37 6.19 -17.65 6.41 C-28.06 8.16 -38.33 8.99 -48.88 9.12 C-48.88 8.79 -48.88 8.47 -48.88 8.12 C-47.72 7.95 -46.57 7.78 -45.39 7.61 C-41.11 6.97 -36.82 6.32 -32.54 5.67 C-30.69 5.39 -28.84 5.11 -26.99 4.84 C-24.32 4.44 -21.66 4.04 -18.99 3.63 C-18.17 3.51 -17.35 3.39 -16.5 3.27 C-10.9 2.4 -5.62 0.18 0 0 Z " fill="#102B60" transform="translate(662.875,545.875)"/>
<path d="M0 0 C0.99 0 1.98 0 3 0 C3 0.66 3 1.32 3 2 C3.71 2.11 4.42 2.22 5.16 2.33 C8.27 3.06 10.67 4.21 13.5 5.69 C21.51 9.8 29.62 13.7 38 17 C40.34 17.99 42.67 18.99 45 20 C45 20.66 45 21.32 45 22 C42.81 21.69 42.81 21.69 40 21 C39.26 20.54 38.52 20.08 37.76 19.61 C34.6 17.77 31.47 16.67 28 15.5 C23.63 14.03 19.88 12.47 16 10 C14.74 9.34 13.47 8.69 12.19 8.06 C11.51 7.73 10.83 7.39 10.14 7.05 C9.43 6.7 8.73 6.36 8 6 C6.5 5.25 5 4.5 3.5 3.75 C2.35 3.17 1.19 2.6 0 2 C0 1.34 0 0.68 0 0 Z " fill="#102A5E" transform="translate(294,477)"/>
<path d="M0 0 C41.45 -0.21 41.45 -0.21 57 1 C57 1.33 57 1.66 57 2 C37.97 3.79 19.02 2.23 0 1 C0 0.67 0 0.34 0 0 Z " fill="#0C2557" transform="translate(523,109)"/>
<path d="M0 0 C0.66 0.66 1.32 1.32 2 2 C2 24.11 2 46.22 2 69 C1.01 70.32 0.02 71.64 -1 73 C-1.66 73 -2.32 73 -3 73 C-2.67 72.01 -2.34 71.02 -2 70 C-1.34 70 -0.68 70 0 70 C0 46.9 0 23.8 0 0 Z " fill="#D3DEE9" transform="translate(479,379)"/>
<path d="M0 0 C5.38 0.42 10.53 0.99 15.75 2.4 C24.74 4.8 33.81 6.59 43 8 C43.5 8.99 43.5 8.99 44 10 C40.77 9.69 37.54 9.38 34.31 9.06 C32.94 8.93 32.94 8.93 31.55 8.8 C30.22 8.67 30.22 8.67 28.86 8.54 C28.05 8.46 27.24 8.38 26.4 8.3 C22.8 7.85 19.45 7.15 16 6 C15.67 5.34 15.34 4.68 15 4 C10.71 3.34 6.42 2.68 2 2 C1.34 1.34 0.68 0.68 0 0 Z " fill="#102B5F" transform="translate(387,663)"/>
<path d="M0 0 C0.66 0.99 1.32 1.98 2 3 C0.31 4.88 0.31 4.88 -2 7 C-2.85 7.33 -3.69 7.66 -4.56 8 C-5.37 8.33 -6.17 8.66 -7 9 C-8.8 11.01 -8.8 11.01 -10 13 C-10 13.66 -10 14.32 -10 15 C-13.9 18.46 -13.9 18.46 -16 20 C-18.19 20.62 -18.19 20.62 -20 21 C-21.73 22.48 -21.73 22.48 -23 24 C-23.66 23.67 -24.32 23.34 -25 23 C-20.89 18.77 -16.66 14.76 -12.2 10.91 C-8.08 7.33 -4.05 3.66 0 0 Z " fill="#313F54" transform="translate(508,277)"/>
<path d="M0 0 C0.55 0.11 1.09 0.21 1.66 0.32 C4.25 0.82 6.84 1.32 9.44 1.81 C10.38 1.99 11.33 2.18 12.3 2.36 C16.9 3.24 21.49 4.1 26.11 4.86 C26.88 4.99 27.66 5.12 28.46 5.26 C29.92 5.5 31.38 5.73 32.84 5.96 C34.57 6.25 36.29 6.62 38 7 C38.66 7.66 39.32 8.32 40 9 C32.9 9.38 26.92 8.63 20.08 6.73 C15.11 5.55 10.09 5.26 5 5 C5 4.34 5 3.68 5 3 C3.68 2.67 2.36 2.34 1 2 C0.67 1.34 0.34 0.68 0 0 Z " fill="#112B60" transform="translate(397,518)"/>
<path d="M0 0 C0 0.99 0 1.98 0 3 C-1.75 5.38 -1.75 5.38 -4 8 C-6.25 9.31 -6.25 9.31 -8 10 C-8.66 11.32 -9.32 12.64 -10 14 C-11.65 14.66 -13.3 15.32 -15 16 C-15.31 16.84 -15.31 16.84 -15.62 17.69 C-16.97 19.95 -18.12 21.09 -20.12 22.75 C-21.07 23.49 -22.02 24.24 -23 25 C-23 23.68 -23 22.36 -23 21 C-15.38 13.94 -7.74 6.92 0 0 Z " fill="#1E2C42" transform="translate(466,315)"/>
<path d="M0 0 C20.79 0 41.58 0 63 0 C63.99 1.49 63.99 1.49 65 3 C64.14 2.84 63.27 2.68 62.38 2.51 C59.17 2.03 56.15 1.84 52.9 1.79 C51.72 1.77 50.54 1.75 49.32 1.73 C48.07 1.72 46.81 1.7 45.51 1.68 C44.21 1.66 42.91 1.64 41.57 1.62 C38.12 1.57 34.68 1.52 31.24 1.47 C27.72 1.42 24.2 1.36 20.68 1.31 C13.79 1.2 6.89 1.1 0 1 C0 0.67 0 0.34 0 0 Z " fill="#C8D8E4" transform="translate(177,773)"/>
<path d="M0 0 C3.36 0.42 6.71 0.86 10.06 1.31 C11.01 1.43 11.95 1.55 12.92 1.67 C18.49 2.43 22.93 3.62 28 6 C29.63 6.45 31.28 6.86 32.94 7.19 C33.71 7.35 34.48 7.5 35.28 7.67 C35.85 7.78 36.41 7.89 37 8 C37.5 8.99 37.5 8.99 38 10 C35.94 9.72 33.87 9.42 31.81 9.12 C30.09 8.88 30.09 8.88 28.33 8.63 C25 8 25 8 22.72 7.06 C18.51 5.42 14.12 4.72 9.69 3.88 C8.76 3.69 7.82 3.51 6.87 3.32 C4.58 2.88 2.29 2.44 0 2 C0 1.34 0 0.68 0 0 Z " fill="#102A61" transform="translate(676,124)"/>
<path d="M0 0 C0 0.33 0 0.66 0 1 C-0.97 1.08 -0.97 1.08 -1.97 1.17 C-4.96 1.42 -7.95 1.68 -10.94 1.94 C-11.96 2.02 -12.98 2.11 -14.03 2.2 C-18.56 2.59 -23.08 3 -27.59 3.53 C-32.57 4.1 -37.56 4.34 -42.56 4.56 C-43.48 4.61 -44.39 4.65 -45.33 4.69 C-47.55 4.8 -49.78 4.9 -52 5 C-52 4.67 -52 4.34 -52 4 C-44.3 2.02 -36.74 1.38 -28.81 0.88 C-26.97 0.75 -26.97 0.75 -25.1 0.61 C-16.71 0.06 -8.4 -0.1 0 0 Z " fill="#0D275A" transform="translate(513,110)"/>
<path d="M0 0 C0.99 0.33 1.98 0.66 3 1 C2.43 1.36 1.86 1.73 1.28 2.1 C-2.5 4.56 -6.08 6.98 -9.38 10.06 C-13.63 13.88 -18.76 15.86 -24 18 C-24.66 17.67 -25.32 17.34 -26 17 C-24.75 16.04 -23.5 15.08 -22.25 14.12 C-21.21 13.32 -21.21 13.32 -20.14 12.51 C-18.13 11.09 -16.27 9.95 -14 9 C-13.01 9 -12.02 9 -11 9 C-11 8.34 -11 7.68 -11 7 C-9.68 6.67 -8.36 6.34 -7 6 C-7 5.34 -7 4.68 -7 4 C-4.69 2.68 -2.38 1.36 0 0 Z " fill="#102B5E" transform="translate(820,457)"/>
<path d="M0 0 C0.66 0 1.32 0 2 0 C2.25 0.54 2.51 1.09 2.77 1.64 C3.11 2.36 3.46 3.08 3.81 3.81 C4.15 4.52 4.49 5.23 4.83 5.96 C6.01 8.01 7.26 9.42 9 11 C9 11.99 9 12.98 9 14 C8.34 14 7.68 14 7 14 C6.67 15.98 6.34 17.96 6 20 C5.67 20 5.34 20 5 20 C4.81 19.32 4.61 18.65 4.41 17.95 C4.15 17.06 3.89 16.17 3.62 15.25 C3.37 14.37 3.11 13.49 2.85 12.58 C2.08 10.02 2.08 10.02 0.91 7.88 C0.61 7.26 0.31 6.64 0 6 C-0.12 2.75 -0.12 2.75 0 0 Z " fill="#152F61" transform="translate(189,380)"/>
<path d="M0 0 C1.49 0.5 1.49 0.5 3 1 C-3.56 4.66 -3.56 4.66 -7.09 5.49 C-8.72 5.71 -10.36 5.86 -12 6 C-12.66 6.66 -13.32 7.32 -14 8 C-15.91 8.62 -17.86 9.15 -19.81 9.62 C-20.85 9.89 -21.89 10.15 -22.96 10.41 C-25.74 10.95 -28.18 11.11 -31 11 C-30.34 10.34 -29.68 9.68 -29 9 C-26.77 8.29 -24.51 7.66 -22.25 7.06 C-17.47 5.81 -13.39 4.24 -9 2 C-6.55 1.23 -6.55 1.23 -4.31 0.75 C-3.57 0.58 -2.82 0.41 -2.05 0.23 C-1.37 0.16 -0.7 0.08 0 0 Z " fill="#10295E" transform="translate(733,525)"/>
<path d="M0 0 C1.32 0.33 2.64 0.66 4 1 C0.29 3.42 -3.19 4.83 -7.44 6.06 C-10.71 7.02 -13.95 7.98 -17.16 9.12 C-20 10 -20 10 -24 10 C-24 9.34 -24 8.68 -24 8 C-23.07 7.73 -23.07 7.73 -22.13 7.45 C-14.66 5.23 -7.19 3.02 0 0 Z " fill="#0F2A60" transform="translate(375,131)"/>
<path d="M0 0 C0.66 0 1.32 0 2 0 C0.99 2.36 -0.03 4.03 -1.79 5.92 C-2.49 6.57 -3.19 7.22 -3.91 7.89 C-4.67 8.6 -5.44 9.31 -6.22 10.04 C-7.41 11.13 -7.41 11.13 -8.62 12.25 C-9.43 13 -10.23 13.74 -11.05 14.51 C-13.03 16.34 -15.01 18.17 -17 20 C-17.33 19.01 -17.66 18.02 -18 17 C-17.01 16.01 -16.02 15.02 -15 14 C-14.34 14 -13.68 14 -13 14 C-12.79 13.28 -12.59 12.56 -12.38 11.81 C-11 9 -11 9 -9.53 7.55 C-8.05 6.33 -6.53 5.16 -5 4 C-4.01 4 -3.02 4 -2 4 C-1.34 2.68 -0.68 1.36 0 0 Z " fill="#1E2E43" transform="translate(490,255)"/>
<path d="M0 0 C2.25 0.42 2.25 0.42 4 1 C-0.85 3.48 -5.06 5.07 -10.44 5.94 C-13.71 6.47 -16.98 7 -20.25 7.57 C-21.28 7.76 -22.31 7.94 -23.38 8.12 C-24.31 8.29 -25.25 8.46 -26.21 8.63 C-29.17 9.02 -32.02 9.06 -35 9 C-32.04 7.36 -29.44 6.58 -26.11 6.04 C-25.17 5.87 -24.24 5.71 -23.27 5.55 C-21.32 5.23 -19.37 4.91 -17.42 4.59 C-12.03 3.67 -7.06 2.5 -1.96 0.49 C-1.31 0.33 -0.67 0.17 0 0 Z " fill="#122C62" transform="translate(691,516)"/>
<path d="M0 0 C-0.33 0.99 -0.66 1.98 -1 3 C-18.16 2.67 -35.32 2.34 -53 2 C-53 1.67 -53 1.34 -53 1 C-45.77 0.86 -38.55 0.71 -31.32 0.57 C-28.86 0.52 -26.4 0.48 -23.94 0.43 C-20.41 0.36 -16.88 0.29 -13.35 0.22 C-12.25 0.2 -11.14 0.18 -10 0.15 C-8.98 0.13 -7.96 0.11 -6.91 0.09 C-6.01 0.07 -5.11 0.06 -4.18 0.04 C-2.78 0.01 -1.39 0 0 0 Z " fill="#3A475A" transform="translate(478,452)"/>
<path d="M0 0 C16.83 0 33.66 0 51 0 C51 0.33 51 0.66 51 1 C44.5 1.14 38.01 1.29 31.51 1.43 C29.3 1.48 27.09 1.52 24.88 1.57 C21.7 1.64 18.53 1.71 15.36 1.78 C14.36 1.8 13.37 1.82 12.35 1.85 C11.43 1.87 10.51 1.89 9.56 1.91 C8.35 1.93 8.35 1.93 7.11 1.96 C5.4 1.99 3.7 2 2 2 C1.34 1.34 0.68 0.68 0 0 Z " fill="#091731" transform="translate(516,454)"/>
<path d="M0 0 C0.66 0 1.32 0 2 0 C1.04 2.15 0.08 3.91 -1.45 5.71 C-5.68 9.91 -10.14 13.55 -15 17 C-15.33 16.01 -15.66 15.02 -16 14 C-14.36 12.19 -12.97 10.98 -10.81 9.81 C-9.92 9.41 -9.92 9.41 -9 9 C-8.67 8.34 -8.34 7.68 -8 7 C-7.34 7 -6.68 7 -6 7 C-5.34 5.35 -4.68 3.7 -4 2 C-2.68 1.3 -1.35 0.63 0 0 Z " fill="#1E2D44" transform="translate(568,249)"/>
<path d="M0 0 C1.92 0.25 3.82 0.57 5.73 0.91 C5.4 1.57 5.07 2.23 4.73 2.91 C1.08 3.25 -2.56 3.58 -6.21 3.91 C-7.74 4.05 -7.74 4.05 -9.31 4.2 C-15.33 4.74 -21.23 5.01 -27.27 4.91 C-27.27 4.58 -27.27 4.25 -27.27 3.91 C-24.06 2.79 -21.28 1.94 -17.86 1.85 C-16.16 1.89 -14.46 1.93 -12.75 1.98 C-10.34 1.91 -8.45 1.53 -6.15 0.85 C-2.27 -0.09 -2.27 -0.09 0 0 Z " fill="#0E285D" transform="translate(631.2734375,674.08984375)"/>
<path d="M0 0 C2.81 -0.19 2.81 -0.19 5 0 C5 0.66 5 1.32 5 2 C1.75 4.04 -1.35 5.78 -5 7 C-6.64 7.22 -6.64 7.22 -8.31 7.44 C-12.57 8.09 -16.01 9.39 -20 11 C-20.99 10.67 -21.98 10.34 -23 10 C-16.95 7.33 -11.61 5.49 -5 5 C-5 4.34 -5 3.68 -5 3 C-2.81 1.5 -2.81 1.5 0 0 Z " fill="#102A5F" transform="translate(766,637)"/>
<path d="M0 0 C0.33 1.32 0.66 2.64 1 4 C-1 7 -1 7 -2.88 8.75 C-5.06 11.07 -6.41 13.46 -7.92 16.25 C-9.58 18.94 -11.68 20.87 -14 23 C-13.5 20.46 -12.98 18.38 -12 16 C-9.83 12.54 -7.45 9.26 -5 6 C-4.34 6 -3.68 6 -3 6 C-2.69 5.2 -2.38 4.39 -2.06 3.56 C-1.71 2.72 -1.36 1.87 -1 1 C-0.67 0.67 -0.34 0.34 0 0 Z " fill="#112A59" transform="translate(895,378)"/>
<path d="M0 0 C1.9 0.15 3.79 0.29 5.69 0.44 C6.86 0.53 8.03 0.62 9.24 0.71 C14.03 1.08 18.82 1.45 23.61 1.82 C24.4 1.88 25.19 1.94 26 2 C26.99 2.99 27.98 3.98 29 5 C18.97 4.63 9.72 3.65 0 1 C0 0.67 0 0.34 0 0 Z " fill="#0E285B" transform="translate(437,527)"/>
<path d="M0 0 C0.66 0.33 1.32 0.66 2 1 C1.46 1.74 0.91 2.47 0.36 3.23 C-0.72 4.69 -0.72 4.69 -1.81 6.19 C-2.52 7.15 -3.23 8.11 -3.96 9.11 C-5.99 11.91 -5.99 11.91 -7.56 14.62 C-8.94 16.91 -10.43 18.82 -12.19 20.81 C-12.72 21.42 -13.25 22.02 -13.79 22.64 C-14.39 23.32 -14.39 23.32 -15 24 C-15.33 23.01 -15.66 22.02 -16 21 C-14.68 20.34 -13.36 19.68 -12 19 C-11.78 18.15 -11.55 17.3 -11.32 16.43 C-9.75 12.36 -7.59 9.49 -4.88 6.12 C-4.41 5.53 -3.94 4.94 -3.46 4.33 C-2.31 2.88 -1.16 1.44 0 0 Z " fill="#122D65" transform="translate(215,223)"/>
<path d="M0 0 C0.66 0.33 1.32 0.66 2 1 C0.73 1.98 -0.54 2.96 -1.81 3.94 C-2.87 4.76 -2.87 4.76 -3.96 5.59 C-6 7 -6 7 -9 8 C-9.99 9.49 -9.99 9.49 -11 11 C-14.82 12.86 -18.91 13.88 -23 15 C-23 14.34 -23 13.68 -23 13 C-21.68 13 -20.36 13 -19 13 C-19 12.34 -19 11.68 -19 11 C-18.09 10.75 -17.18 10.5 -16.25 10.25 C-15.18 9.84 -14.11 9.42 -13 9 C-12.38 8.38 -11.76 7.76 -11.12 7.12 C-9.04 5.04 -7.43 4.09 -4.81 2.81 C-4.12 2.49 -3.42 2.17 -2.71 1.83 C-1.01 1.12 -1.01 1.12 0 0 Z " fill="#122D63" transform="translate(829,603)"/>
<path d="M0 0 C0.66 0.33 1.32 0.66 2 1 C1.4 1.56 0.8 2.11 0.19 2.69 C-2.05 4.86 -2.05 4.86 -3.31 7.38 C-5.62 10.97 -8.68 13.35 -12 16 C-12.99 15.67 -13.98 15.34 -15 15 C-12.06 10.96 -8.69 7.86 -4.9 4.65 C-3.19 3.16 -1.58 1.63 0 0 Z " fill="#38455A" transform="translate(439,339)"/>
<path d="M0 0 C0.66 0.99 1.32 1.98 2 3 C1.07 3.74 0.14 4.49 -0.81 5.25 C-3.27 7.29 -5.22 9.32 -7 12 C-8.65 12.33 -10.3 12.66 -12 13 C-11 10.75 -10.01 9.01 -8.38 7.15 C-7.48 6.27 -7.48 6.27 -6.56 5.38 C-5.97 4.78 -5.37 4.19 -4.75 3.59 C-3 2 -3 2 0 0 Z " fill="#1A2A41" transform="translate(559,296)"/>
<path d="M0 0 C0.66 0.33 1.32 0.66 2 1 C0.02 1.99 0.02 1.99 -2 3 C-2 3.99 -2 4.98 -2 6 C-13.52 14.45 -13.52 14.45 -19 18 C-18.31 16.25 -18.31 16.25 -17 14 C-14.38 11.75 -14.38 11.75 -12 10 C-11.34 10 -10.68 10 -10 10 C-10 9.34 -10 8.68 -10 8 C-9.01 7.67 -8.02 7.34 -7 7 C-6.59 6.22 -6.18 5.43 -5.75 4.62 C-4.88 3.33 -4.88 3.33 -4 2 C-1.81 0.69 -1.81 0.69 0 0 Z " fill="#112D63" transform="translate(248,193)"/>
<path d="M0 0 C0.66 0.33 1.32 0.66 2 1 C0.02 4.63 -1.96 8.26 -4 12 C-4.99 12.33 -5.98 12.66 -7 13 C-7.33 13.99 -7.66 14.98 -8 16 C-9.59 17.54 -9.59 17.54 -11.5 19.06 C-12.69 20.02 -13.86 20.99 -15 22 C-15.33 22.66 -15.66 23.32 -16 24 C-16.66 23.67 -17.32 23.34 -18 23 C-16.76 21.37 -15.51 19.74 -14.25 18.12 C-13.21 16.77 -13.21 16.77 -12.14 15.38 C-11.43 14.6 -10.73 13.81 -10 13 C-9.32 12.68 -8.64 12.36 -7.94 12.03 C-7.3 11.69 -6.66 11.35 -6 11 C-4.22 8.39 -4.22 8.39 -2.75 5.38 C-2.23 4.37 -1.71 3.37 -1.17 2.34 C-0.79 1.57 -0.4 0.79 0 0 Z " fill="#0F2960" transform="translate(881,550)"/>
<path d="M0 0 C6.08 2.38 11.46 5.56 17 9 C17.8 9.5 18.6 9.99 19.42 10.5 C21.28 11.66 23.14 12.83 25 14 C23.68 14.33 22.36 14.66 21 15 C20.09 14.38 19.19 13.76 18.25 13.12 C15.85 11.56 13.59 10.2 11 9 C11 8.34 11 7.68 11 7 C10.11 6.73 9.23 6.46 8.31 6.19 C5.23 5.08 2.74 3.77 0 2 C0 1.34 0 0.68 0 0 Z " fill="#102C61" transform="translate(269,462)"/>
<path d="M0 0 C2.27 0.73 2.27 0.73 5 2 C6.91 3.99 6.91 3.99 8.62 6.31 C9.22 7.11 9.81 7.91 10.42 8.73 C12.07 11.1 13.62 13.47 15 16 C14.67 16.99 14.34 17.98 14 19 C1.53 3.07 1.53 3.07 0 0 Z " fill="#304A74" transform="translate(302,853)"/>
<path d="M0 0 C8.53 1.3 8.53 1.3 12.01 2.95 C13.68 3.96 15.34 4.98 17 6 C18.98 6.72 20.98 7.41 23 8 C23.33 8.66 23.66 9.32 24 10 C19.18 9.41 15.29 7.98 10.88 6 C5.58 3.58 5.58 3.58 0 2 C0 1.34 0 0.68 0 0 Z " fill="#102A61" transform="translate(752,148)"/>
<path d="M0 0 C1.98 0.66 3.96 1.32 6 2 C6.33 2.99 6.66 3.98 7 5 C8.27 5.31 8.27 5.31 9.56 5.62 C12.7 6.88 14.23 7.88 16.69 10.06 C17.25 10.59 17.81 11.12 18.39 11.66 C19.19 12.32 19.19 12.32 20 13 C20.99 13.33 21.98 13.66 23 14 C23 14.66 23 15.32 23 16 C20.88 15.31 20.88 15.31 18 14 C16.52 12.78 15.05 11.56 13.61 10.3 C10.94 8.14 8.01 6.64 5 5 C3.33 4.01 1.66 3.01 0 2 C0 1.34 0 0.68 0 0 Z " fill="#112B62" transform="translate(815,180)"/>
<path d="M0 0 C1.65 0 3.3 0 5 0 C-1.86 3.46 -8.44 6.44 -16 8 C-16.99 8 -17.98 8 -19 8 C-19 7.34 -19 6.68 -19 6 C-17.35 6 -15.7 6 -14 6 C-14 5.34 -14 4.68 -14 4 C-13.07 3.8 -12.15 3.59 -11.19 3.38 C-9.99 3.11 -8.8 2.84 -7.56 2.56 C-6.37 2.3 -5.17 2.03 -3.94 1.75 C-2.97 1.51 -2 1.26 -1 1 C-0.67 0.67 -0.34 0.34 0 0 Z " fill="#0F2961" transform="translate(728,652)"/>
<path d="M0 0 C0.66 0.33 1.32 0.66 2 1 C1.07 1.46 0.14 1.92 -0.82 2.39 C-2.07 3.01 -3.31 3.63 -4.56 4.25 C-5.2 4.57 -5.85 4.89 -6.51 5.22 C-9.8 6.86 -13.03 8.54 -16.19 10.44 C-17.12 10.95 -18.04 11.47 -19 12 C-19.99 12 -20.98 12 -22 12 C-20.28 10.01 -18.6 8.34 -16.31 7.03 C-14.37 6.08 -12.41 5.19 -10.44 4.31 C-9.77 4.01 -9.09 3.7 -8.4 3.38 C-5.63 2.12 -2.89 0.96 0 0 Z " fill="#0E285E" transform="translate(329,148)"/>
<path d="M0 0 C4.22 3.97 7.61 8.31 11 13 C10.01 13.66 9.02 14.32 8 15 C8 14.01 8 13.02 8 12 C7.34 12 6.68 12 6 12 C4.23 9.73 2.53 7.45 1 5 C0.19 2.06 0.19 2.06 0 0 Z " fill="#334A74" transform="translate(272,923)"/>
<path d="M0 0 C7.68 -0.21 14.56 -0.02 22 2 C22 2.33 22 2.66 22 3 C19.65 3.05 17.29 3.09 14.94 3.12 C13.63 3.15 12.32 3.17 10.96 3.2 C6.88 2.99 3.85 2.27 0 1 C0 0.67 0 0.34 0 0 Z " fill="#112C64" transform="translate(431,673)"/>
<path d="M0 0 C3.6 3.49 6.83 7.11 10 11 C9.67 11.99 9.34 12.98 9 14 C8.67 13.34 8.34 12.68 8 12 C7.34 12 6.68 12 6 12 C6 11.34 6 10.68 6 10 C4.68 9.34 3.36 8.68 2 8 C0 2.25 0 2.25 0 0 Z " fill="#324C78" transform="translate(340,1011)"/>
<path d="M0 0 C1.32 0.66 2.64 1.32 4 2 C0.37 5.3 -3.26 8.6 -7 12 C-7.66 11.67 -8.32 11.34 -9 11 C-8.34 9.68 -7.68 8.36 -7 7 C-5.68 6.67 -4.36 6.34 -3 6 C-2.69 5.38 -2.38 4.76 -2.06 4.12 C-1.38 2.75 -0.69 1.38 0 0 Z " fill="#223046" transform="translate(602,217)"/>
<path d="M0 0 C0.66 0.99 1.32 1.98 2 3 C1.55 8.27 0.92 13.02 -1 18 C-1.66 18 -2.32 18 -3 18 C-2.42 11.86 -1.46 5.99 0 0 Z " fill="#3E4B5E" transform="translate(674,186)"/>
<path d="M0 0 C0.99 0.5 0.99 0.5 2 1 C2.48 3.23 2.96 5.46 3.44 7.69 C3.84 9.55 3.84 9.55 4.25 11.45 C4.85 14.3 5.44 17.14 6 20 C5.34 20 4.68 20 4 20 C1.74 13.33 0.43 7.03 0 0 Z " fill="#0D275B" transform="translate(177,494)"/>
<path d="M0 0 C3 -0.31 3 -0.31 5 0 C2.04 2.39 -0.94 4.74 -4 7 C-6.64 7 -9.28 7 -12 7 C-11.42 6.72 -10.84 6.45 -10.25 6.16 C-8.06 5.03 -6.1 3.75 -4.06 2.38 C-1.97 1.04 -1.97 1.04 0 0 Z " fill="#132E63" transform="translate(757,492)"/>
<path d="M0 0 C4.22 3.97 7.61 8.31 11 13 C10.01 13.5 10.01 13.5 9 14 C9 13.34 9 12.68 9 12 C7.68 11.67 6.36 11.34 5 11 C5 10.34 5 9.68 5 9 C4.34 9 3.68 9 3 9 C3 8.34 3 7.68 3 7 C2.34 7 1.68 7 1 7 C0 4 0 4 0 0 Z " fill="#364F79" transform="translate(327,994)"/>
<path d="M0 0 C0.99 0.33 1.98 0.66 3 1 C4.15 2.6 5.3 4.21 6.44 5.81 C7.39 7.15 7.39 7.15 8.37 8.52 C10 11 10 11 11 14 C10.01 14.5 10.01 14.5 9 15 C8.18 13.9 7.37 12.79 6.56 11.69 C6.11 11.07 5.66 10.46 5.19 9.82 C4 8 4 8 3 5 C2.01 4.34 1.02 3.68 0 3 C0 2.01 0 1.02 0 0 Z " fill="#3F567E" transform="translate(313,977)"/>
<path d="M0 0 C0.99 0 1.98 0 3 0 C2.71 0.58 2.41 1.16 2.11 1.75 C1.42 3.14 0.76 4.55 0.14 5.96 C-0.81 8.07 -1.79 10.04 -3 12 C-4.89 13.93 -6.8 15.4 -9 17 C-8.25 14.19 -8.25 14.19 -7 11 C-6.36 10.55 -5.72 10.09 -5.06 9.62 C-4.38 9.09 -3.7 8.55 -3 8 C-1.77 5.4 -0.86 2.74 0 0 Z " fill="#112B60" transform="translate(879,413)"/>
<path d="M0 0 C0 0.99 0 1.98 0 3 C-2.89 6.87 -5.98 9.81 -9.75 12.81 C-10.73 13.6 -11.72 14.39 -12.73 15.21 C-13.86 16.09 -13.86 16.09 -15 17 C-15.66 16.67 -16.32 16.34 -17 16 C-16.56 15.59 -16.11 15.17 -15.65 14.75 C-13.64 12.87 -11.63 11 -9.62 9.12 C-8.93 8.47 -8.23 7.82 -7.51 7.15 C-6.84 6.53 -6.17 5.9 -5.48 5.26 C-4.86 4.68 -4.24 4.11 -3.6 3.51 C-2.38 2.36 -1.19 1.19 0 0 Z " fill="#3C495A" transform="translate(577,279)"/>
<path d="M0 0 C1.65 0 3.3 0 5 0 C2.81 1.99 0.73 3.69 -2.01 4.86 C-3.38 5.36 -4.75 5.83 -6.13 6.29 C-8.28 7.03 -8.28 7.03 -11 9 C-12.32 8.67 -13.64 8.34 -15 8 C-11.39 6.15 -7.83 4.34 -4 3 C-3.01 3 -2.02 3 -1 3 C-0.67 2.01 -0.34 1.02 0 0 Z " fill="#0D255A" transform="translate(780,480)"/>
<path d="M0 0 C0.33 0.66 0.66 1.32 1 2 C-0.65 2.66 -2.3 3.32 -4 4 C-4.25 4.58 -4.5 5.15 -4.75 5.75 C-6.17 8.3 -7.88 10.02 -10 12 C-11.32 11.67 -12.64 11.34 -14 11 C-12.82 10.38 -12.82 10.38 -11.62 9.75 C-10.76 9.17 -9.89 8.6 -9 8 C-8.57 7.04 -8.57 7.04 -8.12 6.06 C-7.75 5.38 -7.38 4.7 -7 4 C-4.75 2.46 -2.43 1.26 0 0 Z " fill="#102B5F" transform="translate(841,461)"/>
<path d="M0 0 C1.98 0.99 1.98 0.99 4 2 C4 2.66 4 3.32 4 4 C4.7 4.19 5.4 4.37 6.12 4.56 C9 6 9 6 10.6 7.66 C11.64 8.9 12.66 10.17 13.67 11.44 C14.11 11.96 14.55 12.47 15 13 C15.66 13.33 16.32 13.66 17 14 C16.67 14.66 16.34 15.32 16 16 C15.48 15.54 14.96 15.08 14.43 14.61 C13.73 14 13.03 13.38 12.31 12.75 C11.58 12.11 10.85 11.47 10.1 10.8 C8.51 9.44 6.86 8.14 5.19 6.88 C3 5 3 5 1.19 2.25 C0.8 1.51 0.4 0.76 0 0 Z " fill="#102A60" transform="translate(220,422)"/>
<path d="M0 0 C1.42 0.14 2.83 0.29 4.25 0.44 C5.43 0.56 5.43 0.56 6.64 0.68 C9 1 9 1 11.11 1.54 C13.16 2.12 13.16 2.12 16 2 C16.33 2.99 16.66 3.98 17 5 C13.37 4.67 9.74 4.34 6 4 C6 3.34 6 2.68 6 2 C3.03 1.5 3.03 1.5 0 1 C0 0.67 0 0.34 0 0 Z " fill="#10295F" transform="translate(359,507)"/>
<path d="M0 0 C4.06 0.66 7.54 1.95 11.31 3.56 C12.92 4.25 12.92 4.25 14.55 4.94 C15.76 5.47 15.76 5.47 17 6 C17.33 6.66 17.66 7.32 18 8 C14.61 7.6 11.92 6.97 8.79 5.59 C7.74 5.04 6.7 4.5 5.62 3.94 C4.57 3.39 3.51 2.84 2.41 2.28 C1.62 1.86 0.82 1.43 0 1 C0 0.67 0 0.34 0 0 Z " fill="#0F295D" transform="translate(341,499)"/>
<path d="M0 0 C0.33 0.99 0.66 1.98 1 3 C0.49 3.89 0.49 3.89 -0.02 4.79 C-2.28 8.78 -4.46 12.67 -6 17 C-6.57 15.25 -6.57 15.25 -7 13 C-6.4 10.17 -5.27 7.6 -4 5 C-1.81 2 -1.81 2 0 0 Z " fill="#132F67" transform="translate(188,265)"/>
<path d="M0 0 C2.93 2.85 5.64 5.65 8 9 C8 9.99 8 10.98 8 12 C7.34 12 6.68 12 6 12 C4.06 10.31 4.06 10.31 2 8 C1.25 5.25 1.25 5.25 1 3 C0.34 2.67 -0.32 2.34 -1 2 C-0.67 1.34 -0.34 0.68 0 0 Z " fill="#364F79" transform="translate(259,906)"/>
<path d="M0 0 C2.48 0.5 2.48 0.5 5 1 C5 1.99 5 2.98 5 4 C5.66 4 6.32 4 7 4 C7.99 6.97 8.98 9.94 10 13 C7.52 10.52 5.44 8.09 3.31 5.31 C2.69 4.5 2.07 3.7 1.43 2.86 C0.96 2.25 0.48 1.63 0 1 C0 0.67 0 0.34 0 0 Z " fill="#324B75" transform="translate(282,827)"/>
<path d="M0 0 C0.66 0 1.32 0 2 0 C2 0.66 2 1.32 2 2 C2.66 2 3.32 2 4 2 C4.33 2.99 4.66 3.98 5 5 C5.66 3.35 6.32 1.7 7 0 C7.33 0 7.66 0 8 0 C8 3.3 8 6.6 8 10 C5.69 8.38 5.69 8.38 3 6 C1.19 2.75 1.19 2.75 0 0 Z " fill="#30446A" transform="translate(336,896)"/>
<path d="M0 0 C0.66 0.33 1.32 0.66 2 1 C0.35 2.98 -1.3 4.96 -3 7 C-3.99 7 -4.98 7 -6 7 C-6.33 7.99 -6.66 8.98 -7 10 C-8.32 10.33 -9.64 10.66 -11 11 C-10.67 10.01 -10.34 9.02 -10 8 C-8.35 7.34 -6.7 6.68 -5 6 C-4.67 5.01 -4.34 4.02 -4 3 C-1.94 1.31 -1.94 1.31 0 0 Z " fill="#102A60" transform="translate(843,591)"/>
<path d="M0 0 C4.16 0.48 7.29 1.14 11 3 C13.32 3.39 15.66 3.73 18 4 C18 4.66 18 5.32 18 6 C11.39 5.51 6.05 3.67 0 1 C0 0.67 0 0.34 0 0 Z " fill="#132D65" transform="translate(376,512)"/>
<path d="M0 0 C1.81 0.69 1.81 0.69 4 2 C5.03 3.65 6.02 5.32 7 7 C7.87 7.87 8.73 8.73 9.62 9.62 C10.41 10.41 11.19 11.19 12 12 C12.33 12.99 12.66 13.98 13 15 C12.34 15 11.68 15 11 15 C6.83 10.31 2.82 5.65 0 0 Z " fill="#102A60" transform="translate(207,407)"/>
<path d="M0 0 C1.32 0 2.64 0 4 0 C6.31 2.97 8.62 5.94 11 9 C10.01 10.49 10.01 10.49 9 12 C6 8 3 4 0 0 Z " fill="#2A4472" transform="translate(239,772)"/>
<path d="M0 0 C0.99 0.33 1.98 0.66 3 1 C-0.37 3.83 -3.9 5.42 -8 7 C-10.94 7.69 -10.94 7.69 -13 8 C-8.99 4.49 -4.79 2.23 0 0 Z " fill="#142F68" transform="translate(794,625)"/>
<path d="M0 0 C1.32 0.33 2.64 0.66 4 1 C4.66 2.32 5.32 3.64 6 5 C6.66 5 7.32 5 8 5 C8.66 6.32 9.32 7.64 10 9 C9.67 9.99 9.34 10.98 9 12 C4.99 8.32 2.55 4.81 0 0 Z " fill="#39517B" transform="translate(326,884)"/>
<path d="M0 0 C0.66 0.33 1.32 0.66 2 1 C-1.96 4.96 -5.92 8.92 -10 13 C-10.66 13 -11.32 13 -12 13 C-12 12.34 -12 11.68 -12 11 C-11.28 10.44 -10.56 9.89 -9.81 9.31 C-7.02 7.02 -4.52 4.59 -2 2 C-1.34 1.34 -0.68 0.68 0 0 Z " fill="#0B2355" transform="translate(233,207)"/>
<path d="M0 0 C5.94 1.49 5.94 1.49 12 3 C12.33 4.65 12.66 6.3 13 8 C10.03 6.54 7.14 4.99 4.25 3.38 C3.05 2.71 3.05 2.71 1.83 2.02 C1.22 1.69 0.62 1.35 0 1 C0 0.67 0 0.34 0 0 Z " fill="#122D63" transform="translate(801,172)"/>
<path d="M0 0 C0 0.99 0 1.98 0 3 C-1.98 5.31 -3.96 7.62 -6 10 C-7.65 10.33 -9.3 10.66 -11 11 C-7.33 7.33 -3.67 3.67 0 0 Z " fill="#3D4A5B" transform="translate(479,303)"/>
<path d="M0 0 C0 0.99 0 1.98 0 3 C-2.64 5.64 -5.28 8.28 -8 11 C-8.66 10.34 -9.32 9.68 -10 9 C-8.81 7.19 -8.81 7.19 -7 5 C-5.36 3.96 -3.69 2.95 -2 2 C-1.34 1.34 -0.68 0.68 0 0 Z " fill="#0E1E37" transform="translate(489,296)"/>
<path d="M0 0 C0 0.99 0 1.98 0 3 C-2.5 6.21 -4.42 8.61 -7.81 10.88 C-8.53 11.25 -9.26 11.62 -10 12 C-10.66 11.67 -11.32 11.34 -12 11 C-8.04 7.37 -4.08 3.74 0 0 Z " fill="#414E61" transform="translate(606,253)"/>
<path d="M0 0 C1.18 0.03 1.18 0.03 2.39 0.07 C3.19 0.09 3.99 0.11 4.81 0.12 C5.42 0.15 6.02 0.17 6.64 0.2 C2.14 3.2 2.14 3.2 -0.36 4.2 C-3.61 4.32 -3.61 4.32 -6.36 4.2 C-6.36 3.54 -6.36 2.88 -6.36 2.2 C-4.15 0.91 -2.57 0.21 0 0 Z " fill="#0E285D" transform="translate(720.359375,505.8046875)"/>
<path d="M0 0 C0 0.99 0 1.98 0 3 C-1.69 5.31 -1.69 5.31 -4 8 C-6.75 9.81 -6.75 9.81 -9 11 C-9.66 10.67 -10.32 10.34 -11 10 C-5.56 5.05 -5.56 5.05 0 0 Z " fill="#374359" transform="translate(466,315)"/>
<path d="M0 0 C0.99 0 1.98 0 3 0 C3 0.66 3 1.32 3 2 C3.99 2.33 4.98 2.66 6 3 C6.33 4.32 6.66 5.64 7 7 C7.66 7.33 8.32 7.66 9 8 C8.34 8.66 7.68 9.32 7 10 C5.68 8.35 4.36 6.7 3 5 C3 4.34 3 3.68 3 3 C2.01 2.67 1.02 2.34 0 2 C0 1.34 0 0.68 0 0 Z " fill="#384F7B" transform="translate(292,840)"/>
<path d="M0 0 C2.12 -0.19 2.12 -0.19 5 0 C8.31 1.5 8.31 1.5 11 3 C11 3.66 11 4.32 11 5 C6.87 4.39 3.67 2.96 0 1 C0 0.67 0 0.34 0 0 Z " fill="#112C5F" transform="translate(321,513)"/>
<path d="M0 0 C0.66 0 1.32 0 2 0 C1.31 1.75 1.31 1.75 0 4 C-2.62 6.25 -2.62 6.25 -5 8 C-5.33 7.01 -5.66 6.02 -6 5 C-4.02 3.35 -2.04 1.7 0 0 Z " fill="#1B2A41" transform="translate(449,292)"/>
<path d="M0 0 C0.66 0 1.32 0 2 0 C1.23 1.8 1.23 1.8 0 4 C-1.73 5.7 -1.73 5.7 -3.62 7.25 C-4.57 8.03 -4.57 8.03 -5.54 8.83 C-6.02 9.21 -6.5 9.6 -7 10 C-6.67 8.68 -6.34 7.36 -6 6 C-4.68 5.34 -3.36 4.68 -2 4 C-1.34 2.68 -0.68 1.36 0 0 Z " fill="#2A384C" transform="translate(479,265)"/>
<path d="M0 0 C0.56 1.69 0.56 1.69 1 4 C0.7 5.67 0.36 7.34 0 9 C-0.04 10.67 -0.05 12.33 0 14 C-1.49 14.99 -1.49 14.99 -3 16 C-2.69 13.9 -2.38 11.79 -2.06 9.69 C-1.89 8.52 -1.71 7.34 -1.54 6.14 C-1 3 -1 3 0 0 Z " fill="#3D4A60" transform="translate(662,236)"/>
<path d="M0 0 C0.66 0.33 1.32 0.66 2 1 C-0.64 3.97 -3.28 6.94 -6 10 C-6.66 9.34 -7.32 8.68 -8 8 C-5.36 5.36 -2.72 2.72 0 0 Z " fill="#D1DAE1" transform="translate(580,241)"/>
<path d="M0 0 C0.66 0 1.32 0 2 0 C1.25 1.75 1.25 1.75 0 4 C-1.29 5.37 -2.62 6.71 -4 8 C-4.99 8 -5.98 8 -7 8 C-6.67 7.01 -6.34 6.02 -6 5 C-4.12 3.16 -2.07 1.63 0 0 Z " fill="#19273E" transform="translate(611,210)"/>
<path d="M0 0 C0.33 0.99 0.66 1.98 1 3 C0.05 4.48 -0.91 5.96 -1.88 7.44 C-2.41 8.26 -2.94 9.08 -3.49 9.93 C-3.99 10.62 -4.49 11.3 -5 12 C-5.99 12.5 -5.99 12.5 -7 13 C-6.34 11.02 -5.68 9.04 -5 7 C-4.34 6.67 -3.68 6.34 -3 6 C-2.01 4.02 -1.02 2.04 0 0 Z " fill="#0D275D" transform="translate(198,247)"/>
<path d="M0 0 C0.66 0 1.32 0 2 0 C1.38 1.69 1.38 1.69 0 4 C-1.92 5.8 -3.93 7.38 -6 9 C-5.81 7.31 -5.81 7.31 -5 5 C-2.44 2.25 -2.44 2.25 0 0 Z " fill="#243248" transform="translate(577,241)"/>
<path d="M0 0 C2.48 0.99 2.48 0.99 5 2 C5.99 3.98 6.98 5.96 8 8 C7.01 8 6.02 8 5 8 C3.35 5.69 1.7 3.38 0 1 C0 0.67 0 0.34 0 0 Z " fill="#27406D" transform="translate(275,817)"/>
<path d="M0 0 C4.45 1.98 4.45 1.98 9 4 C9.66 5.32 10.32 6.64 11 8 C10.01 7.67 9.02 7.34 8 7 C8 6.34 8 5.68 8 5 C6.86 4.81 6.86 4.81 5.69 4.62 C4.8 4.42 3.91 4.21 3 4 C2.01 3.34 1.02 2.68 0 2 C0 1.34 0 0.68 0 0 Z " fill="#102B5E" transform="translate(252,450)"/>
<path d="M0 0 C0.99 0.5 0.99 0.5 2 1 C1.01 1.5 1.01 1.5 0 2 C0 1.34 0 0.68 0 0 Z M-2 2 C-1.34 2.33 -0.68 2.66 0 3 C-1.49 3.99 -1.49 3.99 -3 5 C-2.67 4.01 -2.34 3.02 -2 2 Z M-11 11 C-10.34 11 -9.68 11 -9 11 C-9.33 11.99 -9.66 12.98 -10 14 C-10.99 13.67 -11.98 13.34 -13 13 C-12.34 12.34 -11.68 11.68 -11 11 Z " fill="#16346E" transform="translate(857,428)"/>
<path d="M0 0 C0.99 0 1.98 0 3 0 C3 0.66 3 1.32 3 2 C3.99 2.33 4.98 2.66 6 3 C6 5.97 6 8.94 6 12 C5.67 12 5.34 12 5 12 C5 9.69 5 7.38 5 5 C4.34 5 3.68 5 3 5 C2.01 4.01 1.02 3.02 0 2 C0 1.34 0 0.68 0 0 Z " fill="#1D386C" transform="translate(527,771)"/>
<path d="M0 0 C1.32 0.33 2.64 0.66 4 1 C2.35 2.65 0.7 4.3 -1 6 C-1.99 5.67 -2.98 5.34 -4 5 C-2.68 3.35 -1.36 1.7 0 0 Z " fill="#28364B" transform="translate(428,349)"/>
<path d="M0 0 C0.62 1.56 0.62 1.56 1 4 C0.41 6.35 -0.25 8.69 -1 11 C-1.99 11.5 -1.99 11.5 -3 12 C-2.49 7.68 -1.8 3.97 0 0 Z " fill="#0C2558" transform="translate(183,277)"/>
<path d="M0 0 C0 0.99 0 1.98 0 3 C-2.31 5.64 -4.62 8.28 -7 11 C-7.33 10.01 -7.66 9.02 -8 8 C-6.68 7.34 -5.36 6.68 -4 6 C-3.57 5.07 -3.57 5.07 -3.12 4.12 C-2 2 -2 2 0 0 Z " fill="#0D255B" transform="translate(207,236)"/>
<path d="M0 0 C0.66 0 1.32 0 2 0 C1.38 1.69 1.38 1.69 0 4 C-1.92 5.8 -3.93 7.38 -6 9 C-5.67 7.68 -5.34 6.36 -5 5 C-4.34 5 -3.68 5 -3 5 C-2.54 4.04 -2.54 4.04 -2.06 3.06 C-1 1 -1 1 0 0 Z " fill="#212F47" transform="translate(589,230)"/>
<path d="M0 0 C2.97 0 5.94 0 9 0 C9.99 0.99 10.98 1.98 12 3 C8.7 2.67 5.4 2.34 2 2 C1.34 1.34 0.68 0.68 0 0 Z " fill="#132E66" transform="translate(664,121)"/>
<path d="M0 0 C0.99 0.33 1.98 0.66 3 1 C1.54 1.84 0.09 2.67 -1.38 3.5 C-2.59 4.2 -2.59 4.2 -3.84 4.91 C-4.55 5.27 -5.26 5.63 -6 6 C-6.66 6 -7.32 6 -8 6 C-7.67 5.01 -7.34 4.02 -7 3 C-4.69 2.01 -2.38 1.02 0 0 Z " fill="#0A2254" transform="translate(787,627)"/>
<path d="M0 0 C2.47 0.5 2.47 0.5 5 1 C5.31 1.95 5.62 2.9 5.94 3.88 C6.87 6.86 6.87 6.86 8 9 C6.68 8.34 5.36 7.68 4 7 C3.34 5.35 2.68 3.7 2 2 C1.34 2 0.68 2 0 2 C0 1.34 0 0.68 0 0 Z " fill="#0F2A61" transform="translate(213,566)"/>
<path d="M0 0 C0.33 0 0.66 0 1 0 C1.33 2.31 1.66 4.62 2 7 C1.01 8.65 0.02 10.3 -1 12 C-1.56 10.27 -1.56 10.27 -2 8 C-1.56 5.25 -0.76 2.69 0 0 Z " fill="#616C7D" transform="translate(668,210)"/>
<path d="M0 0 C3.3 0 6.6 0 10 0 C9.01 0.66 8.02 1.32 7 2 C4.96 2.41 4.96 2.41 2.81 2.62 C1.55 2.75 0.3 2.87 -1 3 C-0.67 2.01 -0.34 1.02 0 0 Z " fill="#15326B" transform="translate(408,121)"/>
<path d="M0 0 C0.99 0.33 1.98 0.66 3 1 C3 1.66 3 2.32 3 3 C3.99 3 4.98 3 6 3 C6.33 3.99 6.66 4.98 7 6 C6.34 6.66 5.68 7.32 5 8 C3.35 6.02 1.7 4.04 0 2 C0 1.34 0 0.68 0 0 Z " fill="#1F3C6E" transform="translate(333,1005)"/>
<path d="M0 0 C1.32 1.32 2.64 2.64 4 4 C4 4.99 4 5.98 4 7 C2.68 6.67 1.36 6.34 0 6 C0 4.02 0 2.04 0 0 Z " fill="#314A74" transform="translate(308,969)"/>
<path d="M0 0 C0.66 0 1.32 0 2 0 C1.25 1.81 1.25 1.81 0 4 C-2.12 5.75 -2.12 5.75 -4 7 C-3.67 5.35 -3.34 3.7 -3 2 C-2.01 1.34 -1.02 0.68 0 0 Z " fill="#243249" transform="translate(466,277)"/>
<path d="M0 0 C0.66 0.33 1.32 0.66 2 1 C-1.47 3.97 -1.47 3.97 -5 7 C-5.33 6.01 -5.66 5.02 -6 4 C-4.69 2.56 -4.69 2.56 -3 1 C-2.01 0.67 -1.02 0.34 0 0 Z " fill="#17263C" transform="translate(558,259)"/>
<path d="M0 0 C4.88 4.75 4.88 4.75 6 7 C3.52 6.01 3.52 6.01 1 5 C1 4.34 1 3.68 1 3 C0.34 2.67 -0.32 2.34 -1 2 C-0.67 1.34 -0.34 0.68 0 0 Z " fill="#415981" transform="translate(296,954)"/>
<path d="M0 0 C1.32 0.33 2.64 0.66 4 1 C4.99 2.65 5.98 4.3 7 6 C6.34 6 5.68 6 5 6 C4.67 5.34 4.34 4.68 4 4 C3.01 4.5 3.01 4.5 2 5 C1.34 3.35 0.68 1.7 0 0 Z " fill="#3E577F" transform="translate(288,946)"/>
<path d="M0 0 C1.32 0.33 2.64 0.66 4 1 C3.01 1 2.02 1 1 1 C0.67 2.98 0.34 4.96 0 7 C-0.66 7 -1.32 7 -2 7 C-2 5.35 -2 3.7 -2 2 C-1.34 1.34 -0.68 0.68 0 0 Z " fill="#A7B2BF" transform="translate(596,183)"/>
<path d="M0 0 C6.75 0.88 6.75 0.88 9 2 C9 2.66 9 3.32 9 4 C6.75 3.69 6.75 3.69 4 3 C1.69 1.44 1.69 1.44 0 0 Z " fill="#112C63" transform="translate(743,144)"/>
<path d="M0 0 C1.32 0.33 2.64 0.66 4 1 C4.66 2.65 5.32 4.3 6 6 C5.01 6.5 5.01 6.5 4 7 C2.02 3.53 2.02 3.53 0 0 Z " fill="#2C4872" transform="translate(318,985)"/>
<path d="M0 0 C4.88 4.75 4.88 4.75 6 7 C4.35 6.67 2.7 6.34 1 6 C0.67 4.02 0.34 2.04 0 0 Z " fill="#3D557F" transform="translate(283,937)"/>
<path d="M0 0 C0.99 0.33 1.98 0.66 3 1 C3.33 1.99 3.66 2.98 4 4 C3.67 4.99 3.34 5.98 3 7 C2.34 7 1.68 7 1 7 C0.67 4.69 0.34 2.38 0 0 Z " fill="#243E6B" transform="translate(268,919)"/>
<path d="M0 0 C1.71 1.62 3.37 3.29 5 5 C5.33 5.99 5.66 6.98 6 8 C5.01 8.5 5.01 8.5 4 9 C4 8.34 4 7.68 4 7 C3.34 7 2.68 7 2 7 C1.34 4.69 0.68 2.38 0 0 Z " fill="#41597D" transform="translate(253,898)"/>
<path d="M0 0 C4.75 0.88 4.75 0.88 7 2 C6.67 3.32 6.34 4.64 6 6 C4.68 5.01 3.36 4.02 2 3 C2 2.34 2 1.68 2 1 C1.34 0.67 0.68 0.34 0 0 Z " fill="#1F3A6C" transform="translate(408,770)"/>
<path d="M0 0 C0.66 0.33 1.32 0.66 2 1 C0.51 2.49 0.51 2.49 -1 4 C-2.98 4.33 -4.96 4.66 -7 5 C-7 4.34 -7 3.68 -7 3 C-5.68 3 -4.36 3 -3 3 C-3 2.34 -3 1.68 -3 1 C-2.01 0.67 -1.02 0.34 0 0 Z " fill="#0D2759" transform="translate(813,613)"/>
<path d="M0 0 C3.63 0.33 7.26 0.66 11 1 C9.02 1.99 9.02 1.99 7 3 C4.62 2.62 4.62 2.62 2 2 C1.34 1.34 0.68 0.68 0 0 Z " fill="#0B2454" transform="translate(445,552)"/>
<path d="M0 0 C0.66 0.33 1.32 0.66 2 1 C0.71 1.67 -0.58 2.34 -1.88 3 C-2.59 3.37 -3.31 3.74 -4.05 4.12 C-4.7 4.41 -5.34 4.7 -6 5 C-6.66 5 -7.32 5 -8 5 C-7.67 4.01 -7.34 3.02 -7 2 C-4.69 1.34 -2.38 0.68 0 0 Z " fill="#132F67" transform="translate(746,519)"/>
<path d="M0 0 C2.64 0 5.28 0 8 0 C8 0.99 8 1.98 8 3 C5.03 2.5 5.03 2.5 2 2 C1.34 1.34 0.68 0.68 0 0 Z " fill="#122D62" transform="translate(332,518)"/>
<path d="M0 0 C0.66 0 1.32 0 2 0 C1.25 1.81 1.25 1.81 0 4 C-2.12 5.75 -2.12 5.75 -4 7 C-3.69 5.19 -3.69 5.19 -3 3 C-1.44 1.25 -1.44 1.25 0 0 Z " fill="#223146" transform="translate(416,322)"/>
<path d="M0 0 C0.66 0.99 1.32 1.98 2 3 C0.02 3.99 -1.96 4.98 -4 6 C-4.66 5.67 -5.32 5.34 -6 5 C-4.02 3.35 -2.04 1.7 0 0 Z " fill="#38465A" transform="translate(559,296)"/>
<path d="M0 0 C1.32 0.66 2.64 1.32 4 2 C2.35 3.32 0.7 4.64 -1 6 C-1.33 5.01 -1.66 4.02 -2 3 C-1.34 2.01 -0.68 1.02 0 0 Z " fill="#2A3951" transform="translate(602,217)"/>
<path d="M0 0 C0.72 0.04 1.44 0.08 2.19 0.12 C1.53 0.78 0.87 1.44 0.19 2.12 C-2.25 3.25 -2.25 3.25 -4.81 4.12 C-5.8 4.12 -6.79 4.12 -7.81 4.12 C-7.81 3.47 -7.81 2.81 -7.81 2.12 C-5.08 0.88 -3.02 0.13 0 0 Z " fill="#0A2256" transform="translate(391.8125,127.875)"/>
</svg>
